<?xml version="1.0" encoding="UTF-8"?>
<svg xmlns="http://www.w3.org/2000/svg" xmlns:xlink="http://www.w3.org/1999/xlink" width="375px" height="185px" viewBox="0 0 375 185" version="1.1">
  <!-- Generator: sketchtool 53.2 (72643) - https://sketchapp.com -->
  <title>FCCCD725-445D-466C-9D46-5E4D5E4D95A2</title>
  <desc>Created with sketchtool.</desc>
  <defs>
    <polygon id="path-1" points="0 0.243677617 374.871373 0.243677617 374.871373 95.6092437 0 95.6092437"></polygon>
  </defs>
  <g id="Desktop" stroke="none" stroke-width="1" fill="none" fill-rule="evenodd">
    <g id="LP/4" transform="translate(-533.000000, -2205.000000)">
      <g id="Illustration/LP/Champion" transform="translate(533.000000, 2205.000000)">
        <path d="M188.94342,129.957642 C188.762332,130.062967 188.560648,130.115047 188.358187,130.115047 C188.157668,130.115047 187.956762,130.062967 187.776451,129.959585 C187.415052,129.751654 187.192383,129.366497 187.192383,128.949081 L187.192383,120.689764 C166.689016,125.84489 151.986684,137.867946 150.865959,152.025499 C155.874637,154.333724 160.316347,157.121938 164.039534,160.327957 C171.242254,166.530509 175.209482,173.833346 175.574378,181.515121 L206.549767,181.515121 L206.786813,119.600362 L188.94342,129.957642 Z" id="Fill-1" fill="#D1DDE5"></path>
        <path d="M242.673964,158.64263 C249.220337,153.623145 257.775,149.72804 267.33614,147.329647 C263.679016,135.128586 249.82228,125.069405 231.361399,120.557116 L231.361399,128.949353 C231.361399,129.355498 231.15,129.731716 230.803756,129.943922 C230.617617,130.057798 230.406995,130.115319 230.195596,130.115319 C230.013731,130.115319 229.831477,130.072567 229.664378,129.987452 L209.118653,119.473544 L208.881606,181.515393 L229.061658,181.515393 C229.471632,173.17096 234.26658,165.089258 242.673964,158.64263" id="Fill-3" fill="#D1DDE5"></path>
        <path d="M218.159845,94.6290935 C217.459585,97.4301334 214.375259,102.727119 207.71114,102.727119 C207.067228,102.727119 206.545337,102.205154 206.545337,101.561152 C206.545337,100.91715 207.067228,100.395186 207.71114,100.395186 C214.196503,100.395186 215.832513,94.3185578 215.898964,94.0597132 C216.059067,93.4382532 216.691321,93.0608687 217.315026,93.2178855 C217.937565,93.3756796 218.315285,94.0056901 218.159845,94.6290935 L218.159845,94.6290935 Z M206.173057,95.3255641 L202.471244,95.2936943 C200.713601,95.4946292 199.023187,94.7099338 198.041969,93.2299338 C197.045596,91.7258372 196.995855,89.8257006 197.912565,88.2710788 C197.947539,88.2104485 197.988731,88.1537048 198.034197,88.1008477 L202.425389,83.0180116 C202.847021,82.5298603 203.58342,82.4773918 204.06956,82.8975284 C204.556865,83.3188309 204.610881,84.055333 204.190026,84.5423183 L199.873834,89.5380956 C199.456477,90.3111313 199.496503,91.2030956 199.98614,91.9419296 C200.493653,92.7075809 201.341192,93.0923498 202.250518,92.9710893 C202.304922,92.9640935 202.361269,92.9594296 202.414508,92.9609842 L206.193653,92.9936313 C206.837176,92.9994611 207.354793,93.5257006 207.349352,94.1697027 C207.343523,94.8102069 206.822798,95.3255641 206.183938,95.3255641 L206.173057,95.3255641 Z M200.504922,70.6525494 C192.770984,70.6525494 186.504793,69.035354 181.861399,65.854209 C179.665415,70.0940515 178.416839,74.9001649 178.416839,79.995438 C178.416839,97.0092195 192.256477,110.850795 209.267487,110.850795 C226.279275,110.850795 240.118912,97.0092195 240.118912,79.995438 C240.118912,62.9812679 226.279275,49.1396922 209.267487,49.1396922 C198.180311,49.1396922 188.444301,55.0219926 183.005052,63.8273708 C186.69443,66.4232006 192.219171,68.3206166 200.504922,68.3206166 C207.824611,68.3206166 216.231218,63.6870662 220.129275,59.2074233 C220.552073,58.7212153 221.288472,58.6706901 221.774223,59.0935473 C222.259974,59.5164044 222.310881,60.2529065 221.888083,60.7387258 C217.70557,65.5444506 208.790285,70.6525494 200.504922,70.6525494 L200.504922,70.6525494 Z" id="Fill-5" fill="#4591FF"></path>
        <path d="M207.349236,94.1698582 C207.355065,93.5258561 206.837448,92.9992279 206.193536,92.9937868 L202.41478,92.9611397 C202.361153,92.9595851 202.305194,92.9638603 202.250402,92.9712447 C201.341075,93.0928939 200.493536,92.7073477 199.986412,91.9420851 C199.496386,91.2028624 199.455972,90.3108981 199.874106,89.5382511 L204.189909,84.5424737 C204.610764,84.0554884 204.55636,83.3189863 204.069832,82.8976838 C203.583692,82.4775473 202.846904,82.5300158 202.425272,83.018167 L198.03408,88.1010032 C197.988614,88.1538603 197.947811,88.210604 197.912448,88.2708456 C196.995738,89.8254674 197.045479,91.7259926 198.04263,93.2300893 C199.02307,94.7100893 200.714262,95.494396 202.471127,95.2938498 L206.173329,95.3257195 L206.183821,95.3257195 C206.82307,95.3257195 207.343407,94.8099737 207.349236,94.1698582" id="Fill-7" fill="#000485"></path>
        <path d="M217.315104,93.2179244 C216.691399,93.0609076 216.059145,93.4375147 215.898653,94.0597521 C215.832591,94.3185966 214.19658,100.395225 207.711218,100.395225 C207.067306,100.395225 206.545415,100.917578 206.545415,101.561191 C206.545415,102.205193 207.067306,102.727158 207.711218,102.727158 C214.375337,102.727158 217.459663,97.4301723 218.159922,94.6291324 C218.315751,94.005729 217.937642,93.3757185 217.315104,93.2179244" id="Fill-9" fill="#000485"></path>
        <path d="M221.774145,59.0937027 C221.288394,58.6708456 220.551995,58.7213708 220.129585,59.2075788 C216.23114,63.686833 207.824922,68.3203834 200.505233,68.3203834 C192.219093,68.3203834 186.694352,66.4233561 183.004974,63.8275263 C188.443834,55.0217595 198.180622,49.1398477 209.267409,49.1398477 C226.279197,49.1398477 240.118834,62.9814233 240.118834,79.9952048 C240.118834,97.009375 226.279197,110.850951 209.267409,110.850951 C192.256399,110.850951 178.416762,97.009375 178.416762,79.9952048 C178.416762,74.8999317 179.665337,70.0938183 181.861321,65.8543645 C186.504715,69.0355095 192.770907,70.6523162 200.505233,70.6523162 C208.790207,70.6523162 217.705492,65.5446061 221.888005,60.7384926 C222.310803,60.2526733 222.259896,59.5165599 221.774145,59.0937027 M179.983212,64.4089548 C177.498886,69.0592174 176.085155,74.3643645 176.085155,79.9952048 C176.085155,98.2950473 190.970518,113.182883 209.267409,113.182883 C227.564301,113.182883 242.45044,98.2950473 242.45044,79.9952048 C242.45044,61.6953624 227.564301,46.8079149 209.267409,46.8079149 C197.445777,46.8079149 187.055363,53.0275683 181.176606,62.3619065 C177.977254,59.41823 176.61715,55.9424842 176.048627,53.3058456 C174.212487,44.7923477 178.416373,35.6422321 183.257953,33.4513813 C186.651995,31.9154149 189.529197,32.7521901 191.345518,33.7242174 C194.713523,35.5275788 196.892798,39.0099317 197.304715,41.5179254 C197.40614,42.134333 197.972332,42.560688 198.595259,42.4868435 C199.215078,42.4114443 199.665855,41.8611082 199.61728,41.2384821 C199.536062,40.2003834 199.955751,39.1113708 200.767539,38.2501103 C201.579715,37.3892384 202.639819,36.9115809 203.682435,36.9275158 C204.723109,36.9481145 205.766114,37.4716334 206.544093,38.3639863 C207.321684,39.2559506 207.697461,40.3605095 207.575829,41.394333 C207.50899,41.9633246 207.864948,42.4965599 208.416373,42.6524107 C208.968187,42.8105935 209.550311,42.5404779 209.791244,42.0208456 C210.292927,40.9392174 211.010285,40.2178729 211.810803,39.9893435 C212.487746,39.7961817 213.220259,39.9528099 213.986969,40.4565074 C215.606269,41.5202574 215.386321,42.976938 215.359119,43.1234611 C215.221943,43.7523057 215.620259,44.3737658 216.249404,44.5109611 C216.876218,44.6504884 217.499534,44.2497847 217.637098,43.6205515 C217.664689,43.4938498 218.281788,40.4875998 215.267021,38.5070116 C213.927902,37.6274842 212.511839,37.3647532 211.171554,37.7464128 C210.551736,37.9232511 209.971554,38.2353414 209.448497,38.6659716 C209.175311,38.0134191 208.789819,37.3915704 208.301347,36.8315179 C207.092409,35.4440179 205.425699,34.6297847 203.72829,34.5963603 C202.028161,34.5547742 200.334249,35.3122637 199.071684,36.6500158 C198.795389,36.9426733 198.549016,37.2547637 198.333342,37.5804569 C197.019482,35.1715704 194.886062,32.9748897 192.446036,31.6686187 C190.167668,30.4486292 186.557953,29.3988708 182.296943,31.3269905 C175.80614,34.2636712 171.821425,44.7643645 173.769482,53.7978834 C174.678808,58.0147952 176.814171,61.6471691 179.983212,64.4089548" id="Fill-11" fill="#000485"></path>
        <polygon id="Fill-13" fill="#D1DDE5" points="202.936477 119.138679 189.523912 120.202429 189.523912 126.924225"></polygon>
        <polygon id="Fill-15" fill="#D1DDE5" points="229.029676 120.212806 213.57035 119.131955 229.029676 127.042648"></polygon>
        <path d="M116.484132,129.315466 C120.018847,129.702179 122.639573,129.166223 124.277137,127.722368 C125.180635,126.925624 125.617422,125.990519 125.828433,125.278113 L108.876878,124.510519 C109.878692,126.241202 112.089443,128.835088 116.484132,129.315466" id="Fill-17" fill="#94BDFF"></path>
        <path d="M85.9465026,119.815017 C88.7436528,117.101036 91.0970207,113.523851 92.9879534,109.091235 C95.8873057,102.295595 96.7033679,95.6052794 96.8770725,93.8361197 C96.4492228,93.7665504 96.0194301,93.6938718 95.5838083,93.6149748 C94.95,93.5003214 94.5291451,92.8936303 94.6437824,92.2605105 C94.7580311,91.6262248 95.3658031,91.2084202 95.998057,91.3203529 C107.606736,93.4183151 116.406606,92.3172542 121.446762,88.1376534 C124.923187,85.2546071 125.759845,81.7026849 125.961528,80.1519496 C122.497539,78.8025378 118.736269,78.0535987 114.800907,78.0535987 C97.7895078,78.0535987 83.9498705,91.895563 83.9498705,108.908956 C83.9498705,112.747317 84.6602332,116.422055 85.9465026,119.815017" id="Fill-19" fill="#94BDFF"></path>
        <path d="M125.861036,129.434239 C124.12671,130.986529 121.682021,131.768116 118.574378,131.768116 C117.830984,131.768116 117.049119,131.72342 116.230725,131.633641 C108.077876,130.741676 106.003912,123.875689 105.919974,123.583809 C105.81544,123.222748 105.891218,122.833704 106.12399,122.538714 C106.356762,122.243336 106.708834,122.079324 107.092383,122.095258 L127.244456,123.00821 C127.867772,123.036582 128.358575,123.550773 128.357409,124.174954 C128.357021,124.298546 128.32399,127.229397 125.861036,129.434239 M117.874508,118.166729 L121.653653,118.134082 C121.705337,118.135248 121.763238,118.137191 121.818031,118.144187 C122.727358,118.265059 123.574508,117.880679 124.082409,117.115027 C124.572047,116.375805 124.611684,115.483452 124.194326,114.711193 L119.878135,109.715416 C119.45728,109.228431 119.511295,108.491929 119.998601,108.070626 C120.484741,107.650489 121.221528,107.702958 121.643161,108.191109 L126.033964,113.273945 C126.07943,113.326803 126.120622,113.383546 126.155984,113.443788 C127.072306,114.99841 127.022565,116.898935 126.025803,118.403032 C125.045363,119.88342 123.350674,120.668116 121.597306,120.466792 L117.895104,120.498662 L117.884611,120.498662 C117.245363,120.498662 116.724637,119.983305 116.719197,119.3428 C116.713368,118.698798 117.230984,118.17217 117.874508,118.166729 M145.608964,110.532758 C145.010518,106.535826 144.972824,103.24508 144.972824,102.477485 C142.964922,93.0455945 136.639275,85.1924223 128.166995,81.1022122 C127.778394,83.2153319 126.593938,86.8749118 122.981503,89.8935987 C119.145233,93.0996176 113.674896,94.7078739 106.652098,94.7078739 C104.333705,94.7078739 101.842383,94.5279265 99.1882383,94.1777479 C98.9853886,96.2438403 98.1324093,102.949313 95.1568912,109.949387 C93.0172539,114.983641 90.2375907,119.040815 86.9014508,122.063389 C91.8479534,132.515111 102.492124,139.764313 114.800674,139.764313 C131.267642,139.764313 144.761425,126.794492 145.608964,110.532758" id="Fill-21" fill="#94BDFF"></path>
        <path d="M117.884456,120.498584 L117.894948,120.498584 L121.597539,120.466714 C123.350518,120.668426 125.045596,119.883342 126.025648,118.402954 C127.022798,116.898857 127.072539,114.998721 126.155829,113.444099 C126.120466,113.383468 126.079663,113.326725 126.034197,113.273868 L121.643005,108.191032 C121.221373,107.70288 120.484585,107.650412 119.998446,108.070548 C119.511528,108.491851 119.457513,109.228353 119.878368,109.715338 L124.194171,114.711116 C124.611917,115.484151 124.571891,116.376116 124.082254,117.11495 C123.574741,117.880989 122.727202,118.264981 121.817876,118.144109 C121.763083,118.137113 121.705181,118.13517 121.653497,118.134004 L117.874741,118.166651 C117.230829,118.172481 116.713212,118.698721 116.719041,119.342723 C116.72487,119.983227 117.245207,120.498584 117.884456,120.498584" id="Fill-23" fill="#000485"></path>
        <path d="M124.277021,127.722484 C122.639456,129.166339 120.018731,129.702295 116.484016,129.315583 C112.089715,128.834816 109.878575,126.24093 108.876762,124.510247 L125.828316,125.27823 C125.617306,125.990636 125.180518,126.925352 124.277021,127.722484 M127.244378,123.008093 L107.092306,122.095142 C106.708756,122.079207 106.356684,122.24322 106.123912,122.538598 C105.89114,122.833587 105.815363,123.222631 105.919896,123.58447 C106.004223,123.87635 108.077798,130.742337 116.230648,131.633524 C117.049041,131.723304 117.830907,131.767999 118.574301,131.767999 C121.681943,131.767999 124.126632,130.986413 125.860959,129.434123 C128.323912,127.22928 128.356943,124.29843 128.357332,124.174837 C128.358497,123.551434 127.867694,123.036465 127.244378,123.008093" id="Fill-25" fill="#000485"></path>
        <path d="M114.800712,78.0535599 C118.736075,78.0535599 122.497733,78.8021103 125.961334,80.1515221 C125.760039,81.7030347 124.923381,85.2541796 121.446956,88.1372258 C116.406412,92.3168267 107.606541,93.4178876 95.9978627,91.3203141 C95.3656088,91.2083813 94.7578368,91.6261859 94.6435881,92.2604716 C94.5289508,92.89398 94.9498057,93.5002826 95.583614,93.6149359 C96.0192358,93.693833 96.4490285,93.7661229 96.8768782,93.8364695 C96.7031736,95.6052405 95.8871114,102.295556 92.9877591,109.091196 C91.0968264,113.524201 88.7438472,117.100608 85.9463083,119.814978 C84.6600389,116.422016 83.9496762,112.747667 83.9496762,108.909306 C83.9496762,91.8951355 97.7897021,78.0535599 114.800712,78.0535599 M86.9014896,122.06335 C90.2376295,119.040776 93.0172927,114.983991 95.1569301,109.949348 C98.1320596,102.949663 98.9854275,96.2438015 99.1882772,94.177709 C101.842422,94.5286649 104.333355,94.7082237 106.652137,94.7082237 C113.674935,94.7082237 119.145272,93.0995788 122.981541,89.8935599 C126.593977,86.8748729 127.778433,83.2152931 128.167034,81.1021733 C136.639313,85.1923834 142.964961,93.0455557 144.972863,102.477446 C144.972863,103.245041 145.010557,106.536175 145.609003,110.53272 C144.761464,126.794453 131.267681,139.764274 114.800712,139.764274 C102.491775,139.764274 91.8479922,132.515072 86.9014896,122.06335 M147.947992,110.318959 C147.967422,109.850629 147.983744,109.381911 147.983744,108.909306 C147.983744,106.586701 147.741645,104.319673 147.285427,102.130377 C147.281541,102.108612 147.275712,102.087625 147.270661,102.06586 C145.01522,91.3490746 137.577785,82.5188225 127.708484,78.3357237 C127.655246,78.3089065 127.600065,78.2879191 127.542552,78.2696523 C123.616904,76.6306922 119.313536,75.7216271 114.800712,75.7216271 C96.5038212,75.7216271 81.6180699,90.6094632 81.6180699,108.909306 C81.6180699,113.342699 82.4986399,117.573213 84.0833549,121.443056 C80.7254534,124.074642 76.8110751,125.613717 72.3577073,126.035797 C71.7169041,126.096428 71.2466969,126.665419 71.3073187,127.306701 C71.364443,127.909894 71.871956,128.362289 72.4665155,128.362289 C72.503044,128.362289 72.5403497,128.360734 72.578044,128.357236 C77.2501943,127.914558 81.4365933,126.302026 85.0529145,123.591932 C90.4801166,134.54502 101.772863,142.096207 114.800712,142.096207 C130.352137,142.096207 143.432837,131.339778 147.010298,116.876354 C147.986852,120.064883 149.427785,123.127488 151.56237,125.282583 C153.586593,127.326133 156.027785,128.362289 158.81794,128.362289 C159.462241,128.362289 159.983744,127.840713 159.983744,127.196322 C159.983744,126.55232 159.462241,126.030356 158.81794,126.030356 C156.643718,126.030356 154.81263,125.249547 153.220531,123.643234 C150.126101,120.520388 148.651749,114.971165 147.947992,110.318959" id="Fill-27" fill="#000485"></path>
        <path d="M135.414016,149.254152 C132.431114,155.159772 125.369845,166.842755 116.30728,166.445549 C107.716477,166.077104 98.1603886,155.88306 92.9422539,149.421274 C83.2241192,151.770308 74.9154404,155.631988 68.6298187,160.447041 L69.6487306,161.850864 C74.1304663,168.0266 73.0229534,176.657472 67.1270984,181.500119 C67.1208808,181.505171 67.1142746,181.509835 67.108057,181.515276 L150.795233,181.515276 L173.241995,181.515276 C172.468679,167.191768 157.502098,154.392178 135.414016,149.254152" id="Fill-29" fill="#566D82"></path>
        <path d="M298.725894,123.542922 C298.025635,126.343574 294.941308,131.640559 288.277189,131.640559 C287.633277,131.640559 287.111386,131.118595 287.111386,130.474592 C287.111386,129.83059 287.633277,129.308626 288.277189,129.308626 C294.762552,129.308626 296.398562,123.232387 296.465013,122.973542 C296.625117,122.351693 297.256982,121.97392 297.881075,122.131714 C298.503614,122.289508 298.881723,122.919519 298.725894,123.542922 L298.725894,123.542922 Z M286.739106,124.239393 L283.036904,124.207523 C281.280816,124.410013 279.589236,123.623763 278.60763,122.142985 C277.611645,120.638889 277.561904,118.739141 278.478225,117.184908 C278.513588,117.124277 278.55478,117.067534 278.600246,117.014676 L282.991438,111.93184 C283.412681,111.443689 284.14908,111.391221 284.635609,111.811357 C285.122915,112.23266 285.17693,112.969162 284.756075,113.456147 L280.439883,118.451924 C280.022526,119.224571 280.062552,120.116536 280.551412,120.85537 C281.059702,121.621798 281.906464,122.007733 282.816956,121.884918 C282.870972,121.877922 282.926153,121.876756 282.980168,121.874813 L286.759702,121.90746 C287.403225,121.91329 287.920842,122.439529 287.915402,123.083532 C287.909573,123.724036 287.388847,124.239393 286.749987,124.239393 L286.739106,124.239393 Z M320.684961,108.909267 C320.684961,103.553595 319.311645,98.5138992 316.901541,94.1197605 L306.687163,98.5500441 C305.511256,99.0603487 304.278225,99.3036471 303.060738,99.3036471 C299.911127,99.3036471 296.864106,97.6755693 295.17136,94.8247815 L293.343381,91.7481849 C292.56851,93.6024601 291.278744,95.2215987 289.60193,96.393395 C287.115272,98.1306849 283.995194,98.7311576 281.039883,98.0389622 L262.947785,93.8030063 C260.427707,98.2717668 258.9825,103.423395 258.9825,108.909267 C258.9825,125.92266 272.822137,139.764235 289.833536,139.764235 C306.845324,139.764235 320.684961,125.92266 320.684961,108.909267 L320.684961,108.909267 Z" id="Fill-31" fill="#FF7570"></path>
        <path d="M281.571256,95.7684758 C283.882267,96.3098729 286.321904,95.8407658 288.266464,94.4812489 C290.211023,93.1225095 291.491464,90.9922889 291.779028,88.6366481 C291.839262,88.1415011 292.207655,87.7396313 292.696127,87.6370263 C293.182655,87.5332553 293.683562,87.7536229 293.938096,88.1823099 L297.175531,93.63398 C298.925402,96.5807658 302.615946,97.773938 305.759728,96.4109233 L315.688096,92.1050095 C310.17851,83.6548624 300.65079,78.0535599 289.833692,78.0535599 C279.184469,78.0535599 269.779158,83.4780242 264.233044,91.7089695 L281.571256,95.7684758 Z" id="Fill-33" fill="#FF7570"></path>
        <path d="M258.982306,108.90915 C258.982306,103.423278 260.427513,98.2716502 262.947591,93.8028897 L281.040078,98.0388456 C283.995,98.7314296 287.115466,98.1309569 289.602124,96.3932784 C291.278161,95.2214821 292.568705,93.6023435 293.343964,91.7484569 L295.171166,94.8250536 C296.863523,97.6758414 299.910933,99.3035305 303.060933,99.3035305 C304.27842,99.3035305 305.510674,99.0602321 306.687358,98.5503162 L316.901736,94.1200326 C319.311839,98.5137826 320.684767,103.553867 320.684767,108.90915 C320.684767,125.922543 306.84513,139.764507 289.833731,139.764507 C272.821943,139.764507 258.982306,125.922543 258.982306,108.90915 M289.833731,78.0534044 C300.650829,78.0534044 310.178549,83.6547069 315.688135,92.104854 L305.759767,96.4111565 C302.615984,97.7741712 298.92544,96.5806103 297.17557,93.6338246 L293.938135,88.1825431 C293.683601,87.7534674 293.182694,87.5330998 292.696166,87.6372595 C292.207694,87.7394758 291.839301,88.1413456 291.778679,88.6368813 C291.491503,90.9921334 290.211451,93.1227426 288.266503,94.4814821 C286.321943,95.8402216 283.882306,96.3097174 281.571295,95.7683204 L264.233083,91.7092027 C269.779197,83.4782574 279.184508,78.0534044 289.833731,78.0534044 M256.650699,108.90915 C256.650699,127.208604 271.536451,142.09644 289.833731,142.09644 C308.13101,142.09644 323.016373,127.208604 323.016373,108.90915 C323.016373,103.095642 321.509767,97.6292027 318.87272,92.8720599 C318.973756,92.6000011 318.975699,92.29102 318.850959,92.0038036 C318.685026,91.6202006 318.336839,91.3741817 317.951736,91.3170494 C312.077642,81.9593918 301.672461,75.7214716 289.833731,75.7214716 C277.806917,75.7214716 267.255622,82.1541082 261.435155,91.7593393 C261.374922,91.8370704 261.32557,91.9237405 261.28671,92.0170179 C258.345777,96.9688771 256.650699,102.74352 256.650699,108.90915" id="Fill-35" fill="#000485"></path>
        <path d="M287.915246,123.083687 C287.921075,122.439685 287.403459,121.913057 286.759158,121.907616 L282.98079,121.874968 C282.925997,121.876912 282.871205,121.877689 282.816801,121.885074 C281.906308,122.0075 281.059158,121.621565 280.552034,120.855525 C280.062396,120.116303 280.02237,119.224338 280.440117,118.45208 L284.75592,113.456303 C285.176775,112.969317 285.122759,112.232815 284.635842,111.811513 C284.149313,111.391376 283.412526,111.443845 282.991282,111.931996 L278.600091,117.014832 C278.554624,117.067689 278.513821,117.124433 278.478459,117.184674 C277.561749,118.738908 277.61149,120.639044 278.608251,122.143141 C279.58908,123.623918 281.281049,124.410168 283.036749,124.207679 L286.739339,124.239548 L286.749832,124.239548 C287.38908,124.239548 287.909417,123.723803 287.915246,123.083687" id="Fill-37" fill="#000485"></path>
        <path d="M297.881114,122.131792 C297.257021,121.973998 296.625155,122.351382 296.464275,122.97362 C296.398601,123.232464 294.762591,129.308704 288.277228,129.308704 C287.633316,129.308704 287.111425,129.830668 287.111425,130.47467 C287.111425,131.118672 287.633316,131.640637 288.277228,131.640637 C294.941347,131.640637 298.025674,126.343651 298.725933,123.543 C298.881762,122.919597 298.503653,122.289586 297.881114,122.131792" id="Fill-39" fill="#000485"></path>
        <path d="M340.919067,181.515237 C336.412073,178.514429 333.800285,173.098903 334.609352,167.436193 L335.653523,160.131025 C328.213368,154.560426 318.026969,150.330689 306.136166,148.273536 C303.017254,150.942433 297.128394,154.989502 290.109482,154.989502 C282.710907,154.989502 278.17671,150.8305 275.936425,147.975826 C263.453005,149.869355 252.166865,154.302359 244.092513,160.493252 C236.16272,166.573767 231.792124,173.818693 231.391477,181.515237 L268.291477,181.515237 L340.919067,181.515237 Z" id="Fill-41" fill="#4591FF"></path>
        <path d="M34.5769819,126.985049 C34.3710233,127.067833 29.6837176,129.017329 29.3269819,134.90818 C29.2900648,135.526919 28.7763342,136.003411 28.1646762,136.003411 C28.1409715,136.003411 28.1172668,136.002633 28.092785,136.001079 C27.4504275,135.962602 26.9607902,135.409934 27.0000389,134.766709 C27.4488731,127.348442 33.4683031,124.914682 33.7247798,124.814409 C34.3251684,124.580438 35.000557,124.876982 35.2344948,125.476678 C35.468044,126.074818 35.1734845,126.749524 34.5769819,126.985049 M42.1092358,129.48527 L40.9422668,112.932822 C40.8738731,111.96507 40.090842,111.212633 39.1212824,111.183096 C38.140842,111.157056 37.2793135,111.904051 37.1883808,112.893957 L36.2052202,123.63173 C36.1609197,124.115995 35.8208938,124.521751 35.3518523,124.650007 C34.8824223,124.77943 34.3834585,124.601814 34.0993912,124.207717 L20.233329,104.990259 C19.5342358,104.021341 18.1768523,103.80214 17.2069041,104.500554 C16.242785,105.196247 16.0205052,106.543327 16.7067746,107.511856 L23.9386399,117.535669 C24.3155829,118.057633 24.1974482,118.786362 23.675557,119.163358 C23.1528886,119.540743 22.4246503,119.422203 22.0480959,118.900238 L22.0337176,118.880028 L14.8271114,108.891972 C14.8212824,108.884587 14.815842,108.876814 14.8107902,108.86943 L14.0246503,107.780028 C13.6857902,107.310144 13.1844948,107.000774 12.6128627,106.908274 C12.0400648,106.815774 11.4672668,106.951415 10.998614,107.290322 C10.029443,107.989902 9.80988342,109.347476 10.5089767,110.316783 L11.286956,111.395301 C11.2955052,111.406184 11.3032772,111.417455 11.3118264,111.429114 L19.7192098,123.081394 C20.0957642,123.603747 19.9780181,124.332476 19.4561269,124.70986 C18.9334585,125.086467 18.204443,124.968316 17.8282772,124.446352 L9.40379534,112.769976 C9.06532383,112.313694 8.57102332,112.013264 8.00949482,111.92193 C7.43591969,111.82943 6.86428756,111.96507 6.39524611,112.304367 C5.92542746,112.643274 5.61610104,113.14464 5.52322539,113.715963 C5.43112694,114.287675 5.5667487,114.861331 5.90560881,115.330827 L8.12957254,118.413253 C8.13501295,118.420638 8.14045337,118.428022 8.14550518,118.435407 L15.7628627,128.992066 C16.1398057,129.514419 16.0220596,130.243148 15.4997798,130.620144 C14.9767228,130.997528 14.2488731,130.878988 13.8723187,130.357024 L6.24408031,119.785207 C5.82011658,119.208054 5.16182642,118.901793 4.49420984,118.901793 C4.05470207,118.901793 3.61130829,119.034713 3.22853627,119.310659 C2.25975389,120.010238 2.0401943,121.368201 2.73967617,122.337119 L16.5738731,141.510659 C19.7541839,145.919178 25.9278886,146.917633 30.3357902,143.736877 L35.4420078,140.051257 L39.8942098,136.442591 C41.4824223,134.521079 42.2899352,132.053894 42.1092358,129.48527" id="Fill-43" fill="#94BDFF"></path>
        <path d="M33.7246632,124.814409 C33.4685751,124.914682 27.4491451,127.348442 26.9999223,134.766709 C26.9610622,135.409934 27.4503109,135.962602 28.093057,136.001079 C28.1171503,136.002633 28.1408549,136.003411 28.1645596,136.003411 C28.7766062,136.003411 29.2899482,135.52653 29.3272539,134.90818 C29.6839896,129.01694 34.3709067,127.067833 34.5768653,126.985049 C35.1737565,126.749524 35.4679275,126.074818 35.2347668,125.476678 C35.0004404,124.876982 34.3250518,124.580438 33.7246632,124.814409" id="Fill-45" fill="#000485"></path>
        <path d="M49.2512176,178.760486 C49.2737565,178.780308 49.2951295,178.800907 49.3165026,178.821894 C53.7422798,183.333018 60.7635233,183.709236 65.6470725,179.697923 C70.5912435,175.637251 71.5203886,168.399709 67.7618394,163.221264 L46.5741451,134.029741 L21.4005699,154.433764 L49.2512176,178.760486 Z" id="Fill-47" fill="#566D82"></path>
        <path d="M356.47943,125.16929 C356.29057,125.284332 356.081503,125.339132 355.874767,125.339132 C355.481503,125.339132 355.097176,125.139752 354.877617,124.778691 C354.396528,123.987389 353.864534,123.332116 353.309611,122.789553 L348.926192,120.424584 C347.556762,120.121044 346.563497,120.222095 346.540959,120.224426 C345.897047,120.29866 345.323083,119.838103 345.250415,119.198765 C345.176969,118.558649 345.636684,117.980718 346.275933,117.907651 C346.550674,117.877725 353.008057,117.216233 356.869974,123.567252 C357.204171,124.1172 357.029689,124.834658 356.47943,125.16929 L356.47943,125.16929 Z M372.517772,101.245214 C372.598212,100.671947 372.450933,100.101401 372.101969,99.6392899 C371.753782,99.1767899 371.245881,98.8783025 370.671917,98.7974622 C370.097953,98.7170105 369.529041,98.8650882 369.066606,99.2137122 C368.609223,99.5584496 368.311943,100.058649 368.227228,100.624143 L366.418679,113.536055 C366.329301,114.174227 365.737073,114.620792 365.102487,114.529069 C364.465181,114.440067 364.020233,113.850477 364.11,113.212693 L365.915829,100.320214 C365.916995,100.310498 365.918549,100.30117 365.920104,100.291065 L366.446658,96.5284916 C366.527098,95.9548361 366.379819,95.3842899 366.030855,94.9221786 C365.682668,94.4596786 365.174767,94.1611912 364.600803,94.0807395 C364.026062,94.0018424 363.457539,94.1483655 362.995492,94.4969895 C362.533057,94.8456134 362.234611,95.3531975 362.154171,95.9268529 L360.160648,110.157084 C360.070881,110.795256 359.47943,111.244542 358.844456,111.150099 C358.206762,111.060708 357.762202,110.471506 357.85158,109.833723 L360.034741,94.2451408 C360.201062,93.0612962 359.372953,91.9633445 358.188886,91.7973887 C357.003653,91.6349307 355.907409,92.4600462 355.741865,93.6438908 L355.556114,94.9703718 C355.55456,94.9804769 355.553005,94.9913592 355.551451,95.0014643 L353.839275,107.223901 C353.750285,107.862074 353.159611,108.309027 352.523083,108.216916 C351.885777,108.127525 351.440829,107.538324 351.530596,106.90054 L353.245881,94.6555609 C353.318938,94.0896786 353.170492,93.5280714 352.82658,93.0717899 C352.478005,92.6096786 351.970104,92.3108025 351.396917,92.2303508 C350.821399,92.1518424 350.253264,92.2979769 349.790829,92.6466008 C349.328782,92.9952248 349.029948,93.5028088 348.949508,94.0764643 L345.661554,117.546202 C345.594326,118.027746 345.234482,118.41679 344.760389,118.522504 C344.285518,118.627441 343.794715,118.428061 343.530466,118.020361 L337.647047,108.984122 C337.287979,108.433008 336.684093,108.12908 336.065829,108.12908 C335.749896,108.12908 335.430855,108.208366 335.138627,108.374321 C334.295363,108.853922 333.95456,109.884637 334.346269,110.772326 L341.04342,125.953985 C341.77943,127.621706 342.932409,129.009206 344.358187,130.01971 L362.041477,132.816086 C363.244585,132.491559 364.386684,131.937725 365.411425,131.164689 C367.514145,129.578975 368.872694,127.268807 369.237979,124.660929 L372.517772,101.245214 Z" id="Fill-49" fill="#FF7570"></path>
        <g id="Group-53" transform="translate(0.000000, 89.200315)">
          <mask id="mask-2" fill="white">
            <use xlink:href="#path-1"></use>
          </mask>
          <g id="Clip-52"></g>
          <path d="M365.411541,41.9642962 C364.386801,42.7373319 363.244702,43.291166 362.041205,43.6156933 L344.358303,40.8193172 C342.932526,39.8092017 341.779547,38.421313 341.043536,36.7535924 L334.346386,21.5719328 C333.954676,20.6842437 334.295479,19.6535294 335.138744,19.1739286 C335.430972,19.0083613 335.750013,18.928687 336.065168,18.928687 C336.683821,18.928687 337.288096,19.2330042 337.647163,19.7841176 L343.529806,28.8203571 C343.79522,29.2276681 344.285635,29.4270483 344.760117,29.3225 C345.234987,29.2163971 345.594443,28.8273529 345.661671,28.3458088 L348.949624,4.87607143 C349.030065,4.30280462 349.32851,3.79483193 349.790946,3.44698529 C350.252992,3.09758403 350.821516,2.95144958 351.397034,3.02995798 C351.97022,3.11040966 352.478122,3.40928571 352.826308,3.87139706 C353.170609,4.32767857 353.319054,4.88928571 353.245609,5.45516807 L351.530324,17.7001471 C351.440946,18.3379307 351.885505,18.927521 352.523199,19.0165231 C353.159728,19.1086345 353.750013,18.6616807 353.839391,18.0235084 L355.551567,5.80107143 C355.553122,5.79096639 355.554676,5.78008403 355.556231,5.76997899 L355.741593,4.4434979 C355.907526,3.25965336 357.003381,2.43453782 358.189391,2.5969958 C359.37307,2.76295168 360.201179,3.86090336 360.035246,5.0447479 L357.851697,20.6333298 C357.761541,21.2711134 358.206878,21.8603151 358.844573,21.9497059 C359.479158,22.0441492 360.070997,21.5948634 360.160376,20.9566912 L362.153899,6.72646008 C362.234339,6.15280462 362.533174,5.64522059 362.99522,5.29659664 C363.457655,4.94797269 364.026179,4.80144958 364.601308,4.88034664 C365.174883,4.96079832 365.682396,5.25967437 366.030972,5.72178571 C366.379547,6.18389706 366.527215,6.75444328 366.447163,7.32809874 L365.92022,11.0906723 C365.918666,11.1007773 365.917111,11.110105 365.915946,11.1202101 L364.109728,24.0126891 C364.02035,24.650084 364.464909,25.2396744 365.102604,25.3286765 C365.737189,25.4207878 366.329028,24.973834 366.418795,24.3360504 L368.227733,11.42375 C368.31206,10.8582563 368.609339,10.3580567 369.066334,10.0133193 C369.529158,9.66547269 370.09807,9.5170063 370.672422,9.59745798 C371.245997,9.67790966 371.75351,9.97639706 372.102085,10.4388971 C372.450661,10.9010084 372.598329,11.4715546 372.518277,12.0452101 L369.238096,35.4609244 C368.872422,38.0688025 367.513873,40.3785819 365.411541,41.9642962 L365.411541,41.9642962 Z M231.391593,92.315 C231.791852,84.6184559 236.16206,77.3731408 244.09263,71.2930147 C252.166982,65.1021218 263.453122,60.6691176 275.936541,58.7755882 C278.176826,61.6302626 282.711412,65.7892647 290.109598,65.7892647 C297.12851,65.7892647 303.016982,61.7421954 306.136282,59.0732983 C318.026308,61.1304517 328.213096,65.3598004 335.65364,70.9307878 L334.60908,78.2359559 C333.800013,83.898666 336.412189,89.3141912 340.919184,92.315 L268.291593,92.315 L231.391593,92.315 Z M209.118925,30.2731513 L229.66465,40.7870588 C229.83136,40.8721744 230.013614,40.9149265 230.195479,40.9149265 C230.406878,40.9149265 230.6175,40.8574055 230.80364,40.7435294 C231.149883,40.5313235 231.361282,40.155105 231.361282,39.7489601 L231.361282,31.3567227 C249.822163,35.8690126 263.678899,45.9281933 267.336412,58.1292542 C257.774883,60.5272584 249.22022,64.4227521 242.673847,69.4422374 C234.266464,75.8888655 229.471904,83.9705672 229.061541,92.315 L208.88149,92.315 L209.118925,30.2731513 Z M202.935894,29.9385189 L189.524106,37.7240651 L189.524106,31.0022689 L202.935894,29.9385189 Z M229.029676,31.0123739 L229.029676,37.8429937 L213.57035,29.9315231 L229.029676,31.0123739 Z M46.5741062,44.8294643 L67.7618005,74.0205987 C71.5203497,79.1994328 70.5912047,86.4369748 65.6470337,90.4976471 C60.7634845,94.5089601 53.7422409,94.1327416 49.3164637,89.6216176 C49.2950907,89.6002416 49.2737176,89.5800315 49.2511788,89.5602101 L21.4005311,65.2334874 L46.5741062,44.8294643 Z M30.3356347,54.5365231 C25.9281218,57.7172794 19.7544171,56.7188235 16.5737176,52.3103046 L2.73990933,33.1367647 C2.04042746,32.1678466 2.25959845,30.8098845 3.22838083,30.1103046 C3.61154145,29.8343592 4.05454663,29.7014391 4.4940544,29.7014391 C5.16167098,29.7014391 5.81996114,30.0076996 6.24392487,30.5848529 L13.8721632,41.1566702 C14.2491062,41.6786345 14.976956,41.7971744 15.500013,41.4197899 C16.0219041,41.0427941 16.1396503,40.3140651 15.7627073,39.7917122 L8.14573834,29.2350525 C8.14029793,29.2276681 8.13485751,29.2202836 8.1298057,29.2128992 L5.90545337,26.1304727 C5.56659326,25.6609769 5.4309715,25.0873214 5.52345855,24.5156092 C5.6159456,23.9442857 5.92527202,23.4429202 6.39509067,23.1040126 C6.86413212,22.765105 7.43615285,22.6290756 8.00933938,22.7215756 C8.57086788,22.8129097 9.06516839,23.1133403 9.4036399,23.5696218 L17.8285104,35.2459979 C18.2046762,35.7679622 18.9333031,35.8861134 19.4559715,35.5091176 C19.9778627,35.1321218 20.0959974,34.4033929 19.7190544,33.8810399 L11.311671,22.2287605 C11.3035104,22.2171008 11.2953497,22.2058298 11.2871891,22.1949475 L10.5092098,21.1164286 C9.80972798,20.1471218 10.0292876,18.7895483 10.9988472,18.0899685 C11.4675,17.7510609 12.0399093,17.6158088 12.6130959,17.7079202 C13.184728,17.8004202 13.6860233,18.1097899 14.0248834,18.5796744 L14.8106347,19.6690756 C14.8160751,19.6764601 14.8211269,19.6842332 14.826956,19.6916176 L22.0335622,29.680063 L22.0479404,29.6998845 C22.4244948,30.2218487 23.1527332,30.3403887 23.6757902,29.9630042 C24.1972927,29.5860084 24.3154275,28.8572794 23.9384845,28.3353151 L16.7066192,18.3115021 C16.0203497,17.3429727 16.2430181,15.9962815 17.2067487,15.3009769 C18.1766969,14.6017857 19.5340803,14.8209874 20.2331736,15.7899055 L34.0992358,35.0077521 C34.3833031,35.4014601 34.8822668,35.5790756 35.3516969,35.4496534 C35.8211269,35.3213971 36.1611528,34.9156408 36.2054534,34.4313761 L37.1882254,23.6936029 C37.279158,22.7036975 38.1406865,21.9567017 39.1215155,21.9827416 C40.0910751,22.0122794 40.8737176,22.7647164 40.9421114,23.7324685 L42.1090803,40.284916 C42.2897798,42.8535399 41.4822668,45.3207248 39.8940544,47.2426261 L35.4418523,50.8509034 L30.3356347,54.5365231 Z M150.79535,92.315 L67.107785,92.315 C67.1143912,92.3095588 67.1209974,92.304895 67.127215,92.2998424 C73.0230699,87.4571954 74.1305829,78.8263235 69.6484585,72.6505882 L68.6295466,71.2467647 C74.915557,66.4317122 83.2242358,62.5700315 92.9423705,60.2209979 C98.1601166,66.6827836 107.716205,76.8768277 116.307396,77.2452731 C125.369961,77.642479 132.431231,65.9594958 135.414132,60.0538761 C157.501826,65.1919013 172.468795,77.9914916 173.241723,92.315 L150.79535,92.315 Z M175.574495,92.315 C175.209598,84.6328361 171.24237,77.33 164.03965,71.1274475 C160.316464,67.9214286 155.874754,65.1336029 150.865687,62.8249895 C151.986801,48.6678256 166.689132,36.6447689 187.1925,31.4896429 L187.1925,39.7489601 C187.1925,40.1659874 187.415168,40.551145 187.776567,40.7590756 C187.956878,40.8628466 188.157396,40.9149265 188.358303,40.9149265 C188.560376,40.9149265 188.762448,40.862458 188.943536,40.7579097 L206.786541,30.3998529 L206.549883,92.315 L175.574495,92.315 Z M364.175402,46.3137395 L360.480583,83.8508613 C358.634728,89.8439286 352.635505,93.4051786 346.480453,92.1482668 C340.212319,90.8664811 336.01193,84.9010084 336.91737,78.566313 L342.02864,42.8119538 L364.175402,46.3137395 Z M373.963484,9.03429622 C373.240298,8.07509454 372.186023,7.45480042 370.996127,7.28806723 C370.232915,7.18040966 369.471645,7.26902311 368.770997,7.53641807 C368.902733,6.38522059 368.593018,5.24607143 367.89237,4.31757353 C367.168407,3.35798319 366.114909,2.73768908 364.924624,2.57134454 C363.93136,2.43259454 362.941593,2.62264706 362.083562,3.11118697 C361.934728,2.73108193 361.733044,2.36885504 361.480453,2.03422269 C360.75649,1.07463235 359.702992,0.454338235 358.512707,0.287993697 C356.84522,0.0528571429 355.260505,0.771092437 354.306101,2.02295168 C353.615168,1.31676471 352.715168,0.860094538 351.72035,0.720955882 C350.531231,0.554222689 349.346775,0.860871849 348.386541,1.58454832 C347.427474,2.30822479 346.807267,3.36264706 346.640557,4.55271008 L343.784728,24.9376891 L339.600661,18.5116597 C338.38706,16.6472794 335.921775,16.047584 333.98693,17.1470903 C332.099106,18.2193908 331.335894,20.5264496 332.212578,22.5132563 L338.910117,37.694916 C339.347293,38.6855987 339.903769,39.5966071 340.558562,40.4151155 C340.485505,40.4489286 340.415168,40.4889601 340.349495,40.537542 C340.098459,40.7229307 339.932137,41.001208 339.887837,41.3101891 L336.022422,68.3512815 C328.263225,62.8246008 317.93149,58.6745378 305.979288,56.6811239 C305.633044,56.6236029 305.278251,56.725042 305.01478,56.9582353 C302.272811,59.3853887 296.691334,63.4573319 290.109598,63.4573319 C283.235635,63.4573319 279.191464,59.3084349 277.392241,56.8354202 C277.138096,56.4856303 276.710635,56.3041282 276.283951,56.3670903 C274.018795,56.6927836 271.793277,57.1059244 269.611282,57.5909664 C267.381101,49.9783718 261.507008,42.9969538 252.520609,37.4570588 C241.02307,30.3691492 225.759987,26.4654937 209.543277,26.4654937 C202.315687,26.4654937 195.278899,27.2431933 188.678899,28.7301891 L188.266593,28.7628361 C188.068407,28.7783824 187.888096,28.8467857 187.731101,28.9478361 C179.890687,30.8071639 172.693407,33.6797164 166.566334,37.4570588 C155.930712,44.0136765 149.65092,52.5885819 148.61763,61.8405252 C144.421904,60.0845798 139.870609,58.6473319 135.029028,57.5754202 C134.503251,57.4561029 133.96465,57.718834 133.729158,58.2034874 C131.777604,62.2148004 124.757915,75.282563 116.407267,74.9156723 C108.183303,74.5627731 98.2094689,63.1017122 94.3032513,58.1906618 C94.0230699,57.8381513 93.5660751,57.6788025 93.1265674,57.7806303 C82.952215,60.1459874 74.078899,64.1168803 67.2391321,69.3310819 L47.7387435,42.4644958 C47.5510492,42.2056513 47.2650389,42.0354202 46.9475518,41.9934454 C46.6292876,41.9530252 46.3102461,42.042416 46.0615415,42.2437395 L44.1364119,43.8041912 C44.4158161,42.6184034 44.5234585,41.3801471 44.4348575,40.1209034 L43.2678886,23.5684559 C43.1151684,21.402479 41.3633549,19.7188235 39.1930181,19.6515861 C36.9698316,19.598729 35.0695725,21.2656723 34.8663342,23.4806197 L34.1676295,31.1173109 L22.1237176,14.4253361 C20.6726813,12.4136555 17.8553238,11.9581513 15.8423705,13.4093908 C15.0072668,14.012584 14.4399093,14.8513025 14.1663342,15.770084 C12.7370596,15.1066492 10.9996244,15.2131408 9.63408031,16.1991597 C8.26814767,17.1847899 7.61957254,18.8004307 7.79832902,20.3659349 C6.84159326,20.3356197 5.86620466,20.6103992 5.03032383,21.2128151 C4.05571244,21.9162815 3.41374352,22.9571008 3.22177461,24.1432773 C3.03563472,25.2929202 3.2940544,26.4456723 3.95001295,27.4029307 C3.21983161,27.4911555 2.50169689,27.7593277 1.86439119,28.2194958 C-0.147007772,29.6715126 -0.602448187,32.4896534 0.848976684,34.5017227 L14.6831736,53.6752626 C17.0629663,56.9733929 20.7978109,58.7281723 24.5843394,58.7281723 C24.9923705,58.7281723 25.4007902,58.7001891 25.8088212,58.6589916 L18.8559715,64.2941071 C18.588614,64.5109769 18.430842,64.8347269 18.4246244,65.1782983 C18.4180181,65.5226471 18.5637435,65.8518382 18.8229404,66.0784244 L47.6843394,91.287395 C50.5133549,94.1533403 54.2229404,95.6092437 57.9527332,95.6092437 C59.6956088,95.6092437 61.4419819,95.2878256 63.1055829,94.6469328 L149.629547,94.6469328 L174.439003,94.6469328 L207.706749,94.6469328 L207.711412,94.6469328 L230.195479,94.6469328 L269.457396,94.6469328 L347.397552,94.6469328 C347.923329,94.7036765 348.446775,94.7336029 348.966334,94.7336029 C355.237966,94.7336029 360.880453,90.6655462 362.746904,84.4132458 C362.767889,84.3413445 362.782267,84.2682773 362.78965,84.1936555 L366.602992,45.4482038 C366.648459,44.9954202 366.42579,44.5764496 366.062448,44.3479202 C366.318148,44.1831303 366.57035,44.0109559 366.815557,43.8259559 C369.415298,41.8648004 371.09522,39.0089601 371.546775,35.7842857 L374.826956,12.3685714 C374.994054,11.1781197 374.68706,9.99427521 373.963484,9.03429622 L373.963484,9.03429622 Z" id="Fill-51" fill="#000485" mask="url(#mask-2)"></path>
        </g>
        <path d="M348.925997,120.424584 L353.309417,122.789553 C351.845168,121.358134 350.218096,120.711023 348.925997,120.424584" id="Fill-54" fill="#94BDFF"></path>
        <path d="M346.27601,117.907807 C345.636373,117.980485 345.177047,118.558805 345.250104,119.198532 C345.323161,119.838258 345.896347,120.298426 346.541036,120.224582 C346.563575,120.221861 347.556451,120.120811 348.925881,120.424739 C350.218368,120.71079 351.845052,121.357901 353.309301,122.789708 C353.864611,123.332271 354.396218,123.987544 354.877694,124.778847 C355.097254,125.139519 355.480803,125.338899 355.874845,125.338899 C356.081192,125.338899 356.290648,125.284099 356.479508,125.169445 C357.029767,124.834424 357.204249,124.117355 356.870052,123.567408 C353.008135,117.216389 346.550751,117.87788 346.27601,117.907807" id="Fill-56" fill="#000485"></path>
        <path d="M342.028718,132.012152 L336.917448,167.766512 C336.012008,174.101207 340.212396,180.067457 346.480531,181.348465 C352.635583,182.605766 358.634417,179.044516 360.480272,173.051449 L364.175479,135.514327 L342.028718,132.012152 Z" id="Fill-58" fill="#4591FF"></path>
        <path d="M90.6152332,27.4858309 L138.839067,27.4858309 C139.482979,27.4858309 140.00487,28.0077952 140.00487,28.6517973 C140.00487,29.2957994 139.482979,29.8177637 138.839067,29.8177637 L90.6152332,29.8177637 C89.9713212,29.8177637 89.4494301,29.2957994 89.4494301,28.6517973 C89.4494301,28.0077952 89.9713212,27.4858309 90.6152332,27.4858309 M96.3824611,53.128541 L155.280777,53.128541 L155.280777,25.1476796 C155.280777,11.2590767 144.023394,0.000116596639 130.136736,0.000116596639 L96.3824611,0.000116596639 C82.4958031,0.000116596639 71.2380311,11.2590767 71.2380311,25.1476796 L71.2380311,27.9805893 C71.2380311,41.8695809 82.4958031,53.128541 96.3824611,53.128541" id="Fill-60" fill="#FFFFFF"></path>
        <path d="M90.6152332,29.8177637 L138.839067,29.8177637 C139.482979,29.8177637 140.00487,29.2957994 140.00487,28.6517973 C140.00487,28.0077952 139.482979,27.4858309 138.839067,27.4858309 L90.6152332,27.4858309 C89.9713212,27.4858309 89.4494301,28.0077952 89.4494301,28.6517973 C89.4494301,29.2957994 89.9713212,29.8177637 90.6152332,29.8177637" id="Fill-62" fill="#1152F7"></path>
        <path d="M295.65921,34.0014842 C299.327992,35.537062 302.268536,38.4780179 303.804288,42.1477027 C305.340039,38.4780179 308.280194,35.537062 311.949365,34.0014842 C308.280194,32.4655179 305.340039,29.5249506 303.804288,25.8552658 C302.268536,29.5249506 299.327992,32.4655179 295.65921,34.0014842" id="Fill-64" fill="#D1DDE5"></path>
        <path d="M311.949326,34.0014842 C308.280155,35.537062 305.34,38.4780179 303.804249,42.1477027 C302.268497,38.4780179 299.327953,35.537062 295.659171,34.0014842 C299.327953,32.4655179 302.268497,29.5249506 303.804249,25.8552658 C305.34,29.5249506 308.280155,32.4655179 311.949326,34.0014842 M289.833653,35.1674506 C296.894145,35.1674506 302.638446,40.912167 302.638446,47.9736481 C302.638446,48.6176502 303.160337,49.1396145 303.804249,49.1396145 C304.448161,49.1396145 304.970052,48.6176502 304.970052,47.9736481 C304.970052,40.912167 310.714352,35.1674506 317.774845,35.1674506 C318.418756,35.1674506 318.940648,34.6454863 318.940648,34.0014842 C318.940648,33.3574821 318.418756,32.8355179 317.774845,32.8355179 C310.714352,32.8355179 304.970052,27.0904128 304.970052,20.0289317 C304.970052,19.3849296 304.448161,18.8629653 303.804249,18.8629653 C303.160337,18.8629653 302.638446,19.3849296 302.638446,20.0289317 C302.638446,27.0904128 296.894145,32.8355179 289.833653,32.8355179 C289.189741,32.8355179 288.66785,33.3574821 288.66785,34.0014842 C288.66785,34.6454863 289.189741,35.1674506 289.833653,35.1674506" id="Fill-66" fill="#000485"></path>
        <path d="M20.0185104,76.8875935 C23.6876813,78.4235599 26.6278368,81.3641271 28.1635881,85.033812 C29.6989508,81.3641271 32.6394948,78.4235599 36.3086658,76.8875935 C32.6394948,75.3516271 29.6989508,72.4110599 28.1635881,68.741375 C26.6278368,72.4110599 23.6876813,75.3516271 20.0185104,76.8875935" id="Fill-68" fill="#D1DDE5"></path>
        <path d="M36.3086269,76.8875935 C32.639456,78.4235599 29.6989119,81.3641271 28.1635492,85.033812 C26.6277979,81.3641271 23.6876425,78.4235599 20.0184715,76.8875935 C23.6876425,75.3516271 26.6277979,72.4110599 28.1635492,68.741375 C29.6989119,72.4110599 32.639456,75.3516271 36.3086269,76.8875935 M14.1929534,78.0535599 C21.2534456,78.0535599 26.9977461,83.7986649 26.9977461,90.860146 C26.9977461,91.5041481 27.5196373,92.0261124 28.1635492,92.0261124 C28.8074611,92.0261124 29.3293523,91.5041481 29.3293523,90.860146 C29.3293523,83.7986649 35.0732642,78.0535599 42.1337565,78.0535599 C42.7776684,78.0535599 43.2995596,77.5315956 43.2995596,76.8875935 C43.2995596,76.2435914 42.7776684,75.7216271 42.1337565,75.7216271 C35.0732642,75.7216271 29.3293523,69.9765221 29.3293523,62.915041 C29.3293523,62.2710389 28.8074611,61.7490746 28.1635492,61.7490746 C27.5196373,61.7490746 26.9977461,62.2710389 26.9977461,62.915041 C26.9977461,69.9765221 21.2534456,75.7216271 14.1929534,75.7216271 C13.5490415,75.7216271 13.0271503,76.2435914 13.0271503,76.8875935 C13.0271503,77.5315956 13.5490415,78.0535599 14.1929534,78.0535599" id="Fill-70" fill="#000485"></path>
      </g>
    </g>
  </g>
</svg>
