<svg xmlns="http://www.w3.org/2000/svg" viewBox="0 0 20 17"><path fill="#FFF" d="M17.98 3.22h-6.65V1.64C11.33.78 10.64.1 9.78.1H1.56C.69.09 0 .78 0 1.64v7.67c0 .2.11.38.27.49a.61.61 0 0 0 .29.07c.08 0 .2-.03.26-.07l1.67-.96h1.47v4.65a2.03 2.03 0 0 0 2.02 2.02h10.7l2.5 1.42a.6.6 0 0 0 .26.07c.1 0 .2-.02.3-.07.17-.09.26-.29.26-.49V5.22c0-1.09-.91-2-2.02-2zm-14.02 2v2.51h-1.6c-.1 0-.2.03-.27.07l-.98.56V1.64c0-.24.2-.44.45-.44h8.22c.24 0 .44.2.44.44v1.58H5.96a2 2 0 0 0-2 2zM18.89 15.5l-1.78-1.02a.6.6 0 0 0-.27-.07H5.96a.92.92 0 0 1-.92-.91V5.22c0-.49.4-.9.92-.9h12.02c.49 0 .9.4.9.9V15.5z"></path></svg>