<?xml version="1.0" encoding="UTF-8"?>
<svg xmlns="http://www.w3.org/2000/svg" xmlns:xlink="http://www.w3.org/1999/xlink" width="105px" height="46px" viewBox="0 0 105 46" version="1.1">
  <!-- Generator: sketchtool 53.2 (72643) - https://sketchapp.com -->
  <title>49E72B8C-F7F0-4A8F-B719-D449F91420E0</title>
  <desc>Created with sketchtool.</desc>
  <g id="Desktop" stroke="none" stroke-width="1" fill="none" fill-rule="evenodd">
    <g id="Case-Studies" transform="translate(-175.000000, -1638.000000)" fill="#000371" fill-rule="nonzero">
      <g id="Case-studies" transform="translate(175.000000, 1525.000000)">
        <g id="University-Quotes" transform="translate(0.000000, 105.000000)">
          <g id="Duke" transform="translate(0.000000, 8.000000)">
            <path d="M68.8078125,45.4828855 C68.6667188,45.4828855 68.5264453,45.4481241 68.3853516,45.3807903 L64.7995359,44.0218955 C64.4143172,43.8814125 64.1339672,43.7688236 63.9587484,43.6819202 C63.7841859,43.5943634 63.6972722,43.4636815 63.6972722,43.2898747 C63.6972722,43.0454997 63.8274984,42.8874597 64.0899984,42.8181983 C64.3518422,42.7489369 64.6510463,42.6534935 64.9830891,42.531306 C65.3158078,42.4091185 65.6137059,42.1994199 65.8761797,41.9034256 C66.1393359,41.6067778 66.2699297,41.1100563 66.2699297,40.4128688 L66.2699297,14.1588915 C66.2699297,13.6015335 66.2081109,13.1831557 66.0853594,12.90415 C65.9632969,12.6257977 65.7795075,12.4150733 65.5347263,12.2752438 C65.2892888,12.136721 65.0082497,12.0320906 64.6939388,11.9628293 C64.3789388,11.8935679 64.0470403,11.8062986 63.6972263,11.7004463 C63.4176638,11.6318384 63.1901878,11.5529 63.0143325,11.46665 C62.8391138,11.3790932 62.7518325,11.213454 62.7518325,10.9684256 C62.7518325,10.7253574 62.9181131,10.577602 63.2501756,10.5253293 C63.5828944,10.4743634 63.8368172,10.4467176 64.0120163,10.4467176 C64.4674538,10.4467176 65.0553225,10.4801068 65.7726038,10.5467676 C66.4918538,10.6134153 67.1686444,10.6478435 67.8038944,10.6478435 C68.4023944,10.6478435 68.9822569,10.6134088 69.5440069,10.5467676 C70.1070694,10.4801199 70.7036663,10.4467176 71.3343225,10.4467176 C71.6145413,10.4467176 71.8853231,10.4822631 72.1484663,10.5508514 C72.41031,10.6207662 72.5422163,10.7589622 72.5422163,10.9673997 C72.5422163,11.2117747 72.3928013,11.3588767 72.0961763,11.410496 C71.798895,11.4627688 71.4388763,11.558944 71.0195325,11.699427 C70.7734388,11.7673815 70.5197981,11.915052 70.2566419,12.1404781 C69.9947981,12.3672111 69.8649459,12.7753043 69.8649459,13.3666656 L69.8649459,20.7717509 C69.8649459,20.9449043 69.9872513,21.0331145 70.2320325,21.0331145 C70.3370325,21.0331145 70.4951034,20.9281182 70.7057597,20.7196807 L78.6332597,13.2629761 C79.0178222,12.8800784 79.2095325,12.6013341 79.2095325,12.4288341 C79.2095325,12.2543739 79.1136806,12.097719 78.9213994,11.9591963 C78.7278056,11.8200202 78.4933603,11.7332017 78.2118619,11.6998778 C77.7570806,11.6293097 77.3897775,11.5502864 77.1095588,11.4640364 C76.8299963,11.3764795 76.6911994,11.2122256 76.6911994,10.9678506 C76.6911994,10.724129 76.8121922,10.5780528 77.0582859,10.5257801 C77.3030672,10.4748142 77.7053944,10.4471685 78.2651953,10.4471685 C78.8945391,10.4471685 79.5243422,10.4805577 80.1549984,10.5472185 C80.7843422,10.6138662 81.4501734,10.6482943 82.1503922,10.6482943 C82.9556109,10.6482943 83.6905453,10.6138597 84.3559828,10.5472185 C85.0207641,10.4805707 85.6337016,10.4471685 86.1934828,10.4471685 C87.1037016,10.4471685 87.5582859,10.6206094 87.5582859,10.9688764 C87.5582859,11.1426832 87.445575,11.2829179 87.2178562,11.3874634 C86.9894812,11.4913554 86.6836687,11.6210179 86.2991063,11.7784895 C85.9138875,11.9353077 85.46685,12.1361068 84.9589125,12.3798284 C84.450975,12.6248568 83.9355563,12.9888906 83.4105563,13.4763142 L74.3274,21.6805188 C74.256525,21.7491267 74.1685875,21.845217 74.0649,21.9674045 C73.9592438,22.089592 73.9069866,22.2370599 73.9069866,22.4115202 C73.9069866,22.5506963 74.3622206,22.9249364 75.2717897,23.5345997 C76.1813522,24.1442304 77.2234116,24.796594 78.3961303,25.4937815 C79.5688491,26.1903156 80.7054741,26.8433327 81.8086303,27.4529634 C82.9111303,28.062594 83.6550553,28.4539861 84.0409303,28.6290997 C84.2148366,28.6983611 84.4508766,28.7770185 84.7494834,28.8639219 C85.0467647,28.9501719 85.3354359,29.0462622 85.6169803,29.1508077 C85.8958866,29.2546997 86.1309028,29.3685955 86.3244834,29.490783 C86.5167647,29.6129705 86.6126231,29.7436523 86.6126231,29.8828284 C86.6126231,30.1611807 86.5088503,30.3362943 86.2988503,30.4055557 C86.0881941,30.474817 85.8610922,30.5107153 85.6169409,30.5107153 C85.0906284,30.5107153 84.4690284,30.493008 83.7517472,30.4596841 C83.0338097,30.4263602 82.3408753,30.4086528 81.6774066,30.4086528 C80.9758753,30.4086528 80.2673878,30.4263602 79.5507628,30.4596841 C78.8334816,30.493008 78.1947534,30.5107153 77.6343159,30.5107153 C77.4590972,30.5107153 77.2934728,30.4573972 77.1359728,30.3534855 C76.9784728,30.2482866 76.9001363,30.1267983 76.9001363,29.9869688 C76.9001363,29.7772244 77.0036203,29.6115852 77.2149328,29.4887443 C77.4242766,29.3672102 77.6524022,29.2457938 77.8978266,29.1242597 C78.1432641,29.0020722 78.3694209,28.8446855 78.5807203,28.6525832 C78.7894078,28.460481 78.8944931,28.189558 78.8944931,27.8419639 C78.8944931,27.6668503 78.6928209,27.4146801 78.2905397,27.0834213 C77.8882584,26.7527963 77.3903616,26.3768901 76.7944866,25.9593616 C76.2005803,25.539873 75.5436741,25.1046372 74.8257366,24.6505179 C74.1077991,24.197052 73.4346834,23.7878872 72.8046834,23.4213247 C72.1746834,23.0547622 71.6232366,22.7588332 71.1507366,22.5321003 C70.6782366,22.3053673 70.4068116,22.192125 70.3365928,22.192125 C70.0222491,22.192125 69.8649131,22.471294 69.8649131,23.0292727 L69.8649131,44.5408068 C69.8649131,44.924358 69.8040131,45.1768222 69.6793125,45.2983693 C69.55725,45.4212102 69.4246088,45.4831599 69.283515,45.4831599 L68.8077338,45.4831599 L68.8078125,45.4828855 Z M15.7355625,42.9611185 C14.0522813,42.9611185 12.5540625,42.9116554 11.24025,42.8110369 C9.925125,42.7097585 8.619975,42.6589168 7.323225,42.6589168 L2.5438875,42.6589168 C2.3680125,42.6589168 2.16728531,42.6510105 1.93890375,42.6333685 C1.711185,42.6163798 1.49368406,42.5805077 1.28368406,42.5282153 C1.07368406,42.4752892 0.889888125,42.3873599 0.733044375,42.2658259 C0.574238438,42.1436384 0.496184063,41.9787375 0.496184063,41.7696466 C0.496184063,41.4906409 0.608895,41.3236949 0.83661375,41.2714222 C1.0643325,41.2198028 1.47596531,41.1589509 2.07115125,41.0896895 C2.42027625,41.0544054 2.79617625,41.027681 3.19911375,41.0100585 C3.60205125,40.9930699 3.98720437,40.9575244 4.35470437,40.9059182 C4.72154813,40.8536455 5.02762312,40.7663761 5.27240437,40.6435352 C5.51784188,40.5220011 5.64052125,40.3396608 5.64052125,40.0952858 L5.64052125,15.501621 C5.64052125,14.7345188 5.57075531,14.1423341 5.43031781,13.7241523 C5.29053656,13.3046636 5.10739687,12.9837091 4.87968469,12.7563227 C4.65196594,12.5295898 4.39840406,12.3715497 4.11882844,12.2846463 C3.83860969,12.1970895 3.55822687,12.1355057 3.27804094,12.100875 C2.47282219,11.9616989 1.94847844,11.7872386 1.70304094,11.5781477 C1.45760344,11.3697102 1.33595437,11.1593517 1.33595437,10.9502608 C1.33595437,10.6810563 1.45760344,10.5302821 1.70304094,10.4969582 C1.94847844,10.4636344 2.1399,10.4469071 2.2803375,10.4469071 C2.9103375,10.4469071 3.66246562,10.4802963 4.53724687,10.5469571 C5.41268437,10.6142582 6.23634375,10.648033 7.0074375,10.648033 L19.4158125,10.648033 C21.658875,10.648033 23.7704906,11.0232923 25.7517094,11.7720926 C27.7329281,12.5215528 29.4589969,13.5403483 30.9309656,14.8308313 C32.4022781,16.1206608 33.5675156,17.6368966 34.4265469,19.380192 C35.2855781,21.1221807 35.7154875,22.9701523 35.7154875,24.9218852 C35.7154875,28.0595557 35.1897459,30.7700926 34.1384531,33.0535614 C33.0864844,35.3359193 31.6576969,37.2096352 29.8523531,38.673925 C28.0470094,40.1375614 25.9351312,41.2182347 23.5175062,41.9154222 C21.0979125,42.6126097 18.5052,42.9608767 15.7356937,42.9608767 L15.7355625,42.9611185 Z M14.5727531,41.3990787 C15.6614719,41.3990787 16.8210656,41.2683969 18.0508781,41.0070332 C19.2800344,40.7456696 20.4925219,40.335198 21.6868969,39.7778401 C22.8812719,39.2198287 24.0319406,38.5232946 25.1383781,37.686931 C26.2441594,36.8505673 27.2205281,35.855752 28.0638094,34.705752 C28.9077469,33.5550986 29.5738406,32.2478884 30.0653719,30.784252 C30.5575594,29.3206156 30.8036531,27.6991156 30.8036531,25.9224963 C30.8036531,24.1439168 30.5575594,22.5660645 30.0653719,21.1893315 C29.5738406,19.813252 28.9249406,18.6097378 28.1170969,17.5812719 C27.3085969,16.552806 26.3953594,15.6735787 25.3762031,14.9411071 C24.3570469,14.2086355 23.3386781,13.6250105 22.3195219,13.1891866 C21.3010219,12.7533628 20.3167125,12.4314281 19.3684313,12.2223372 C18.4194938,12.0119395 17.594325,11.9078841 16.8921375,11.9078841 C16.0482,11.9078841 15.2236875,12.0119395 14.4158438,12.2223372 C13.6066875,12.4314281 12.8869781,12.7533497 12.2543531,13.1891866 C11.6217281,13.6250105 11.1124125,14.1734168 10.7265375,14.8359736 C10.3406625,15.497877 10.1471934,16.2833401 10.1471934,17.1902719 L10.1471934,39.725698 C10.1471934,39.8995048 10.1729841,40.0914045 10.2261469,40.3004955 C10.2786469,40.508933 10.4450063,40.6922991 10.7265375,40.8497707 C11.0074125,41.0065889 11.4469688,41.1376366 12.0441563,41.2428355 C12.6406875,41.3467276 13.4833781,41.3990395 14.5727531,41.3990395 L14.5727531,41.3990787 Z M96.7680656,31.3672889 C95.1248156,31.3672889 93.7077094,31.0176301 92.5198969,30.3198088 C91.3314281,29.6219679 90.3433781,28.7405844 89.5565344,27.6755276 C88.7696906,26.6104707 88.1856281,25.4238798 87.8010656,24.114448 C87.4165031,22.8056696 87.2237756,21.5414537 87.2237756,20.3195787 C87.2237756,17.0375048 88.0142944,14.4467378 89.5965131,12.5440105 C91.1780756,10.6419366 93.4223194,9.69044233 96.3283256,9.69044233 C97.6933256,9.69044233 98.8570537,9.8919733 99.8197725,10.2938199 C100.781835,10.6956665 101.577276,11.1518114 102.207932,11.6588568 C102.837932,12.1659023 103.293172,12.6387091 103.572735,13.0738795 C103.854266,13.5097034 103.994166,13.7793 103.994166,13.8844989 C103.994166,14.1628511 103.834782,14.3020665 103.520438,14.3020665 C103.310438,14.3020665 103.117048,14.1884517 102.943142,13.9610653 C102.767267,13.7349858 102.522282,13.492081 102.207945,13.2300313 C101.892945,12.9680142 101.455882,12.7343028 100.895445,12.5245455 C100.334351,12.3148011 99.5481637,12.2111116 98.532945,12.2111116 C96.9225075,12.2111116 95.6175544,12.4630009 94.6200544,12.9706997 C93.6225544,13.4770918 92.8535606,14.1333759 92.3108419,14.937069 C91.7681231,15.7394554 91.40082,16.6653361 91.2085387,17.7140577 C91.0156012,18.7614724 90.9203991,19.8434526 90.9203991,20.9627423 L90.9203991,22.0633446 C90.9203991,22.376981 90.9532772,22.6222969 91.0208841,22.7973844 L103.795447,22.7973844 C104.250228,22.7973844 104.537797,22.8753884 104.659859,23.0322065 C104.781265,23.1890247 104.843406,23.5109463 104.843406,23.999056 C104.843406,24.5557605 104.703211,25.2532094 104.422992,26.0889196 C104.14343,26.9252832 103.689567,27.7353798 103.060223,28.5188173 C102.43088,29.3029082 101.600133,29.9737634 100.568508,30.5311213 C99.5368828,31.0891327 98.2712391,31.3672889 96.7684266,31.3672889 L96.7680656,31.3672889 Z M38.4123469,30.5107349 C38.0271281,30.5107349 37.7127188,30.4923088 37.4679375,30.4576128 C37.2225,30.4223287 37.0998206,30.2840477 37.0998206,30.0390193 C37.0998206,29.8645591 37.2039609,29.7332239 37.4146172,29.6469739 C37.6246172,29.559417 38.0454769,29.4293886 38.6748141,29.2549284 C38.9898141,29.1850136 39.3233925,29.0974568 39.6725109,28.9935648 C40.0222922,28.8890193 40.1975109,28.6440759 40.1975109,28.2605051 C40.1975109,27.4927494 40.1889141,26.6299227 40.1718516,25.6713716 C40.1547891,24.7128205 40.1472422,23.7272182 40.1472422,22.7157409 C40.1472422,21.7382409 40.1379891,20.7628318 40.1215828,19.7866386 C40.1045203,18.8091386 40.0969734,17.920633 40.0969734,17.1189 C40.0969734,16.0022239 40.1921691,14.9898972 40.3851066,14.0836188 C40.5780441,13.1773403 40.9096537,12.3931841 41.3828034,11.7293205 C41.8559597,11.0667636 42.5036128,10.5631159 43.3258941,10.2141955 C44.1488316,9.86592841 45.1737628,9.69044886 46.3989816,9.69044886 C47.4502941,9.69044886 48.3866316,9.8540821 49.2095691,10.1794798 C50.0325066,10.5048776 50.7499191,10.8672582 51.3628566,11.267798 C51.9751378,11.6683378 52.4747409,12.0261446 52.8598941,12.339781 C53.2451128,12.6527639 53.5423941,12.8104446 53.7530503,12.8104446 C53.9984878,12.8104446 54.1201303,12.6011054 54.1201303,12.183577 L54.1201303,10.9809122 C54.1201303,10.7365372 54.1366022,10.5370384 54.1713834,10.3795668 C54.2048522,10.2220952 54.3237581,10.1447511 54.5271956,10.1447511 C54.7746019,10.1447511 55.4282925,10.2472514 56.4887925,10.4530753 C57.5492925,10.6595526 59.0062331,10.9008239 60.8621081,11.1758764 C61.2466706,11.2457912 61.5187519,11.3132165 61.6762519,11.3831313 C61.8324394,11.4510858 61.9131122,11.5891185 61.9131122,11.7955957 C61.9131122,12.070681 61.7104162,12.2251338 61.308135,12.2591111 C60.9051975,12.2943952 60.19671,12.3121679 59.1814912,12.3121679 C58.93671,12.3121679 58.6471003,12.3799591 58.3150444,12.520442 C57.9816694,12.6596182 57.8167012,13.0082511 57.8167012,13.566942 C57.8167012,16.2165159 57.8499731,18.85655 57.9182166,21.4882205 C57.9851541,24.1208057 58.0197319,26.7622773 58.0197319,29.4121125 C58.0197319,29.8995557 57.8790844,30.2040443 57.5962406,30.3268852 C57.3160219,30.4490727 57.0875222,30.5106565 56.9122969,30.5106565 C56.3840156,30.5106565 55.8663,30.4929491 55.3557375,30.4596253 C54.8464875,30.4263014 54.3279188,30.4095741 53.8022625,30.4095741 C53.346825,30.4095741 52.9001813,30.4263014 52.4631188,30.4596253 C52.0247438,30.4929491 51.5790844,30.5106565 51.1249594,30.5106565 C50.8447406,30.5106565 50.5818731,30.4832787 50.3364094,30.431019 C50.0916281,30.3787463 49.9693228,30.2665233 49.9693228,30.0920631 C49.9693228,29.8829722 50.1703388,29.7091653 50.5732762,29.5693358 C50.9755575,29.4301597 51.2820262,29.3247974 51.4920262,29.2548827 C52.1220262,29.0804224 52.6123106,28.9497406 52.9614356,28.8628372 C53.3112169,28.7752804 53.582655,28.697283 53.7755794,28.6280216 C53.9678606,28.5587602 54.0912028,28.4714909 54.1437028,28.3656386 C54.1955466,28.2617466 54.2226562,28.1393108 54.2226562,28.0001347 C54.2226562,26.1183165 54.2048719,24.253879 54.1714031,22.4073449 C54.1366219,20.559504 54.12015,18.6952625 54.12015,16.8114841 C54.12015,16.2894102 54.0586594,15.7476034 53.93661,15.1902455 C53.8152037,14.6322341 53.5438444,14.1364926 53.1245006,13.7006688 C52.7058131,13.2654983 52.08441,12.9086716 51.2634412,12.6296659 C50.4424725,12.3500068 49.2981694,12.2100597 47.8314506,12.2100597 C46.5386381,12.2100597 45.5248631,12.4987815 44.7911756,13.0738011 C44.0568319,13.6488011 43.6909069,14.476017 43.6909069,15.5567557 C43.6909069,17.8920398 43.7073788,20.2183068 43.74216,22.5358182 C43.7749725,24.8541136 43.7913787,27.1805114 43.7913787,29.5168409 C43.7913787,29.8990852 43.7480663,30.1600764 43.6601288,30.2998864 C43.571535,30.4397159 43.3511597,30.5102057 42.99876,30.5102057 C42.6115725,30.5102057 42.2237944,30.4924983 41.8359506,30.4591744 C41.4487631,30.4258506 41.060985,30.4091233 40.6731413,30.4091233 C40.2859538,30.4091233 39.9079538,30.4258506 39.54111,30.4591744 C39.1742662,30.4924983 38.7967256,30.5102057 38.4121631,30.5102057 L38.4123469,30.5107349 Z M97.5148781,30.1074574 C98.6350969,30.1074574 99.5621156,29.8023153 100.297772,29.1926847 C101.032116,28.583054 101.400075,27.8263409 101.400075,26.9200625 C101.400075,26.4319659 101.339569,26.0320142 101.215505,25.7183778 C101.093442,25.4047415 100.840254,25.1444037 100.455698,24.9353324 C100.07048,24.7262415 99.5269078,24.5771009 98.8273453,24.4901974 C98.1271266,24.4026406 97.1994516,24.3595156 96.0444516,24.3595156 C94.9242328,24.3595156 94.0573922,24.3690554 93.4451109,24.386044 C92.8328297,24.4030327 92.3775891,24.4293651 92.0803078,24.4646557 C91.7830266,24.498633 91.6067841,24.5430648 91.5542841,24.5953375 C91.5030966,24.6469568 91.4763478,24.7256142 91.4763478,24.8301597 C91.4763478,25.2476881 91.6165425,25.7526426 91.8967613,26.3452847 C92.1763238,26.9372733 92.5694175,27.5123386 93.0780113,28.0696966 C93.5859488,28.6264011 94.21608,29.104958 94.9687988,29.5061511 C95.7208613,29.9060375 96.5698519,30.1074901 97.5148519,30.1074901 L97.5148781,30.1074574 Z M70.6033781,6.54617898 C69.5507531,6.54617898 68.7186938,5.94467017 68.7186938,4.96061648 C68.7186938,3.94391193 69.2971388,3.64367045 70.505925,3.28625568 C71.4607688,3.00136932 71.79585,2.78198722 71.79585,2.34286364 C71.79585,1.78942614 71.4125213,1.51381818 70.6125656,1.51381818 C70.0737844,1.51381818 69.5096719,1.77375739 69.1257656,2.18865909 L68.5146263,1.59548125 C68.9950013,1.03420284 69.7141856,0.676657386 70.5469669,0.676657386 C72.0084356,0.676657386 72.6602888,1.37613182 72.6602888,2.40002386 C72.6602888,3.416075 71.9590856,3.77414318 70.8309919,4.11522273 C69.8439919,4.40729659 69.5830669,4.60282926 69.5830669,5.00137614 C69.5830669,5.38296705 69.8686997,5.7088875 70.5386981,5.7088875 C71.1017606,5.7088875 71.5096856,5.52960511 71.8686544,5.16369602 L72.4736381,5.77422841 C71.9676694,6.26167159 71.3783569,6.54603523 70.6033256,6.54603523 L70.6033781,6.54617898 Z M4.19087813,6.45735455 L4.19087813,3.15561307 C4.19087813,1.58743125 4.9258125,0.676709659 6.3380625,0.676709659 C7.75884375,0.676709659 8.53446563,1.54561307 8.53446563,3.13927784 L8.53446563,6.45735455 L7.67622188,6.45735455 L7.67622188,3.12294261 C7.67622188,2.08271534 7.252245,1.53130341 6.35446875,1.53130341 C5.49675,1.53130341 5.0481375,2.10761023 5.0481375,3.18116136 L5.0481375,6.45741989 L4.19094375,6.45741989 L4.19087813,6.45735455 Z M27.2797219,6.45735455 L27.2797219,0.766553409 L28.1369156,0.766553409 L28.1369156,6.45735455 L27.2797219,6.45735455 Z M79.6963781,6.45735455 L79.6963781,0.766553409 L80.5535719,0.766553409 L80.5535719,6.45735455 L79.6963781,6.45735455 Z M98.0569275,6.45735455 L100.106672,3.01774375 L100.106672,0.766553409 L100.964916,0.766553409 L100.964916,3.01774375 L103.012613,6.45735455 L102.025153,6.45735455 L101.126878,4.87995966 C100.923441,4.51339716 100.637112,3.9683233 100.539331,3.75792557 C100.440893,3.9683233 100.148003,4.53750795 99.9517838,4.88708182 L99.0617775,6.4572892 L98.0569275,6.4572892 L98.0569275,6.45735455 Z M15.6975656,6.45604773 L15.6975656,0.766292045 L16.5291656,0.766292045 L16.5291656,3.71682614 C16.5291656,4.03372955 16.5220125,4.82278636 16.5220125,5.0338375 C16.6112625,4.88747386 16.8080588,4.54553835 16.9465275,4.33449375 L19.2239119,0.766292045 L20.04114,0.766292045 L20.04114,6.45604773 L19.2075056,6.45604773 L19.2075056,3.52184886 C19.2075056,3.20429205 19.2167588,2.3920392 19.2167588,2.18033466 C19.1347275,2.3266983 18.8900316,2.74896392 18.7430316,2.98481193 L16.5712378,6.45604773 L15.6976378,6.45604773 L15.6975656,6.45604773 Z M35.0228156,6.45604773 L37.0059375,0.766292045 L37.91235,0.766292045 L39.8718469,6.45604773 L38.9582156,6.45604773 L37.7820844,2.83884034 C37.6757719,2.5056017 37.5117488,1.9938517 37.4631863,1.78933466 C37.4139675,1.9938517 37.2509681,2.49749943 37.1453119,2.83073807 L35.9527744,6.45611307 L35.0227369,6.45611307 L35.0228156,6.45604773 Z M46.7132531,6.45604773 L46.7132531,0.766292045 L50.5184531,0.766292045 L50.5184531,1.5953375 L47.5714969,1.5953375 L47.5714969,3.39116705 L49.2121219,3.39116705 L49.2121219,4.2202125 L47.5714969,4.2202125 L47.5714969,5.62706761 L50.3954063,5.62706761 L50.3954063,6.45611307 L46.7132531,6.45611307 L46.7132531,6.45604773 Z M57.4501594,6.45604773 L57.4501594,0.766292045 L58.2910125,0.766292045 L58.2910125,3.01748239 L59.5809375,3.01748239 L60.7150031,0.766292045 L61.7044969,0.766292045 L60.5365688,3.09099091 C61.3122563,3.28636023 61.7936813,3.84698523 61.7936813,4.75718409 C61.7936813,5.92874659 60.9534188,6.45604773 59.9572313,6.45604773 L57.4501594,6.45604773 L57.4501594,6.45604773 Z M87.4388156,6.45604773 L87.4388156,5.6189 L89.10405,5.6189 L89.10405,0.766292045 L89.9613094,0.766292045 L89.9613094,5.6189 L91.6265438,5.6189 L91.6265438,6.45604773 L87.4388813,6.45604773 L87.4388156,6.45604773 Z M58.2908156,5.65157045 L59.9571,5.65157045 C60.5365688,5.65157045 60.9281531,5.32600938 60.9281531,4.73274659 C60.9281531,4.11462159 60.5287069,3.822025 59.9571,3.822025 L58.2908156,3.822025 L58.2908156,5.65157045 Z" id="Shape" transform="translate(52.669795, 23.079909) scale(-1, 1) rotate(-180.000000) translate(-52.669795, -23.079909) "></path>
          </g>
        </g>
      </g>
    </g>
  </g>
</svg>
