<?xml version="1.0" encoding="UTF-8"?>
<svg width="21px" height="21px" viewBox="0 0 21 21" version="1.1" xmlns="http://www.w3.org/2000/svg" xmlns:xlink="http://www.w3.org/1999/xlink">
    <!-- Generator: sketchtool 53.2 (72643) - https://sketchapp.com -->
    <title>87A099CC-C7B1-4053-8624-7E19627EC524</title>
    <desc>Created with sketchtool.</desc>
    <g id="Desktop" stroke="none" stroke-width="1" fill="none" fill-rule="evenodd">
        <g id="Rankings/Home" transform="translate(-347.000000, -2819.000000)" fill="#0030B5" fill-rule="nonzero">
            <g id="Style/Footer" transform="translate(0.000000, 2633.000000)">
                <g id="Group-13" transform="translate(227.000000, 184.000000)">
                    <g id="Instagram" transform="translate(120.000000, 2.000000)">
                        <path d="M18.50625,0 L2.49375,0 C1.115625,0 1.8189894e-12,1.115625 1.8189894e-12,2.49375 L1.8189894e-12,18.50625 C1.8189894e-12,19.884375 1.115625,21 2.49375,21 L18.50625,21 C19.884375,21 21,19.884375 21,18.50625 L21,2.49375 C21,1.115625 19.884375,0 18.50625,0 Z M15.75,2.625 L17.71875,2.625 C18.1125,2.625 18.375,2.8875 18.375,3.28125 L18.375,5.25 C18.375,5.64375 18.1125,5.90625 17.71875,5.90625 L15.75,5.90625 C15.35625,5.90625 15.09375,5.64375 15.09375,5.25 L15.09375,3.28125 C15.09375,2.8875 15.35625,2.625 15.75,2.625 Z M10.5,6.496875 C12.73125,6.496875 14.56875,8.26875 14.56875,10.5 C14.56875,12.73125 12.73125,14.503125 10.5,14.503125 C8.26875,14.503125 6.43125,12.73125 6.43125,10.5 C6.496875,8.26875 8.26875,6.496875 10.5,6.496875 Z M18.375,19.03125 L2.625,19.03125 C2.23125,19.03125 1.96875,18.76875 1.96875,18.375 L1.96875,8.53125 L4.59375,8.53125 C4.265625,9.05625 4.134375,9.909375 4.134375,10.5 C4.134375,14.04375 7.021875,16.865625 10.5,16.865625 C14.04375,16.865625 16.865625,13.978125 16.865625,10.5 C16.865625,9.909375 16.8,8.990625 16.340625,8.53125 L18.965625,8.53125 L18.965625,18.375 C19.03125,18.76875 18.76875,19.03125 18.375,19.03125 Z" id="Shape"></path>
                    </g>
                </g>
            </g>
        </g>
    </g>
</svg>