<?xml version="1.0" encoding="UTF-8"?>
<svg width="20px" height="20px" viewBox="0 0 20 20" version="1.1" xmlns="http://www.w3.org/2000/svg" xmlns:xlink="http://www.w3.org/1999/xlink">
    <!-- Generator: sketchtool 53.2 (72643) - https://sketchapp.com -->
    <title>4548D76E-85B0-4E75-997A-6C53DEBABE9B</title>
    <desc>Created with sketchtool.</desc>
    <g id="Desktop" stroke="none" stroke-width="1" fill="none" fill-rule="evenodd">
        <g id="Rankings/Home" transform="translate(-306.000000, -2820.000000)" fill="#0030B5">
            <g id="Style/Footer" transform="translate(0.000000, 2633.000000)">
                <g id="Group-13" transform="translate(227.000000, 184.000000)">
                    <path d="M98.5428571,22.4117647 L94.5491558,22.4117647 L94.5491558,16.1669118 C94.5491558,14.6470588 94.5491558,12.7904412 92.4246104,12.7904412 C90.3008052,12.7904412 90.0454156,14.3941176 90.0454156,16.0823529 L90.0454156,22.4963235 L86.0524545,22.4963235 L86.0524545,9.49852941 L89.7907662,9.49852941 L89.7907662,11.2713235 L89.8758961,11.2713235 C90.3851948,10.2588235 91.7450519,9.16102941 93.6993377,9.16102941 C97.7781688,9.16102941 98.5428571,11.8617647 98.5428571,15.3220588 L98.5428571,22.4117647 Z M81.3791948,7.72647059 C80.1044675,7.72647059 79,6.71397059 79,5.36323529 C79,4.09705882 80.0193377,3 81.3791948,3 C82.6539221,3 83.7583896,4.01323529 83.7583896,5.36323529 C83.7583896,6.71397059 82.6539221,7.72647059 81.3791948,7.72647059 L81.3791948,7.72647059 Z M79.3397792,22.4117647 L83.4178701,22.4117647 L83.4178701,9.49852941 L79.3397792,9.49852941 L79.3397792,22.4117647 Z" id="Fill-6"></path>
                </g>
            </g>
        </g>
    </g>
</svg>