<?xml version="1.0" encoding="UTF-8"?>
<svg xmlns="http://www.w3.org/2000/svg" xmlns:xlink="http://www.w3.org/1999/xlink" width="40px" height="30px" viewBox="0 0 40 30" version="1.1">
  <!-- Generator: sketchtool 53.2 (72643) - https://sketchapp.com -->
  <title>7B359A1B-809F-43E8-B222-BA70B3CA4501</title>
  <desc>Created with sketchtool.</desc>
  <g id="Desktop" stroke="none" stroke-width="1" fill="none" fill-rule="evenodd">
    <g id="Case-Studies" transform="translate(-700.000000, -1789.000000)" fill="#4591FF" fill-rule="nonzero">
      <g id="Case-studies" transform="translate(175.000000, 1525.000000)">
        <path d="M556.186441,294 C553.836146,294 551.77967,293.11112 550.016949,291.333333 C548.254228,289.555547 547.372881,287.333347 547.372881,284.666667 C547.372881,280.844425 548.005643,277.600013 549.271186,274.933333 C550.536729,272.266653 551.937845,270.133341 553.474576,268.533333 C555.192099,266.666657 557.225977,265.155561 559.576271,264 L562.288136,267.333333 C561.29378,267.955559 560.344637,268.755551 559.440678,269.733333 C558.717511,270.533337 558.039551,271.511105 557.40678,272.666667 C556.774008,273.822228 556.367233,275.155548 556.186441,276.666667 C558.536735,276.666667 560.593212,277.533325 562.355932,279.266667 C564.118653,281.000009 565,283.022211 565,285.333333 C565,287.644456 564.118653,289.666658 562.355932,291.4 C560.593212,293.133342 558.536735,294 556.186441,294 Z M533.813559,294 C531.463265,294 529.406788,293.11112 527.644068,291.333333 C525.881347,289.555547 525,287.333347 525,284.666667 C525,280.844425 525.632762,277.600013 526.898305,274.933333 C528.163848,272.266653 529.564964,270.133341 531.101695,268.533333 C532.819218,266.666657 534.853096,265.155561 537.20339,264 L539.915254,267.333333 C538.920899,267.955559 537.971756,268.755551 537.067797,269.733333 C536.344629,270.533337 535.66667,271.511105 535.033898,272.666667 C534.401127,273.822228 533.994351,275.155548 533.813559,276.666667 C536.163854,276.666667 538.22033,277.533325 539.983051,279.266667 C541.745772,281.000009 542.627119,283.022211 542.627119,285.333333 C542.627119,287.644456 541.745772,289.666658 539.983051,291.4 C538.22033,293.133342 536.163854,294 533.813559,294 Z" id="“"></path>
      </g>
    </g>
  </g>
</svg>
