<?xml version="1.0" encoding="UTF-8"?>
<svg xmlns="http://www.w3.org/2000/svg" xmlns:xlink="http://www.w3.org/1999/xlink" width="245px" height="35px" viewBox="0 0 245 35" version="1.1">
  <!-- Generator: sketchtool 53.2 (72643) - https://sketchapp.com -->
  <title>453A874D-B2F9-4D34-9624-1CA61481B583</title>
  <desc>Created with sketchtool.</desc>
  <defs>
    <polygon id="path-1" points="0 45.9764091 254.882523 45.9764091 254.882523 0 0 0"></polygon>
  </defs>
  <g id="Desktop" stroke="none" stroke-width="1" fill="none" fill-rule="evenodd">
    <g id="Case-Studies" transform="translate(-334.000000, -1645.000000)">
      <g id="Case-studies" transform="translate(175.000000, 1525.000000)">
        <g id="University-Quotes" transform="translate(0.000000, 105.000000)">
          <g id="RIT" transform="translate(282.500000, 31.000000) scale(-1, 1) rotate(-180.000000) translate(-282.500000, -31.000000) translate(155.000000, 8.000000)">
            <polygon id="path12" fill="#D1DDE5" fill-rule="nonzero" points="93.4226963 7.48788105 93.8896753 7.48788105 93.8896753 38.4897696 93.4226963 38.4897696"></polygon>
            <mask id="mask-2" fill="white">
              <use xlink:href="#path-1"></use>
            </mask>
            <g id="path18"></g>
            <g id="g16" mask="url(#mask-2)">
              <g transform="translate(3.667374, 3.724696)">
                <g id="g22" stroke-width="1" fill="none" fill-rule="evenodd" transform="translate(34.705371, 2.894586)">
                  <path d="M10.0021233,28.5560047 C10.5277803,29.9527658 12.2636709,29.9527658 13.6572731,29.9527658 L13.9164343,29.9527658 L13.9164343,31.8771922 C13.9164343,31.8771922 8.48383028,31.7567603 6.82128721,31.7567603 C5.11106826,31.7567603 0.0341995899,31.8771922 0.0341995899,31.8771922 L0.0341995899,29.9527658 L0.293360716,29.9527658 C1.686963,29.9527658 3.42285357,29.9527658 3.94606565,28.5584878 C4.38248321,27.3616187 4.38248321,23.9758698 4.38248321,22.5306877 L4.38248321,10.2317406 C4.38248321,8.78531692 4.38248321,5.40080958 3.94728811,4.20518208 C3.42285357,2.80966255 1.686963,2.80966255 0.293360716,2.80966255 L0.0341995899,2.80966255 L0.0341995899,0.882753014 C0.0341995899,0.887719276 4.42526924,1.07395409 6.82984441,1.07395409 C9.59748965,1.07395409 13.9164343,0.882753014 13.9164343,0.882753014 L13.9164343,2.80966255 L13.6572731,2.80966255 C12.2636709,2.80966255 10.5277803,2.80966255 10.0033458,4.20269895 C9.5669282,5.40080958 9.5669282,8.78531692 9.5669282,10.2317406 L9.5669282,22.5306877 C9.5669282,23.9758698 9.5669282,27.3616187 10.0021233,28.5560047" id="path24" fill="#D1DDE5" fill-rule="nonzero"></path>
                </g>
                <g id="g26" stroke-width="1" fill="none" fill-rule="evenodd" transform="translate(52.741734, 3.702721)">
                  <path d="M0,31.0391355 L0,22.9999994 L1.88258554,22.9999994 L1.89114275,23.2532788 C2.06228689,28.4839939 4.03288942,28.7049925 8.4728574,28.7049925 C8.62566466,28.7049925 8.77847193,28.7049925 8.92883428,28.7062341 C10.032714,28.7136835 11.0742483,28.7198913 11.4837718,28.30645 C11.6206871,28.1686363 11.6879223,27.9774352 11.6879223,27.7241559 L11.6879223,6.59147082 C11.6879223,3.45527657 11.2551721,2.15908227 6.90688851,1.97657215 L6.65872951,1.96663963 L6.65872951,0.0509041823 C6.65872951,0.0509041823 11.7282634,0.239622126 14.6609405,0.239622126 C16.8992614,0.239622126 21.8991152,0.0509041823 21.8991152,0.0509041823 L21.8991152,1.96663963 L21.6497337,1.97657215 C17.3014501,2.15908227 16.8699224,3.45527657 16.8699224,6.59147082 L16.8699224,27.7241559 C16.8699224,27.9414298 16.9347127,28.1127658 17.0691831,28.2480965 C17.5703909,28.7484473 18.9517686,28.7273407 20.0617606,28.7112004 C20.2720234,28.7074757 20.4786188,28.7049925 20.6742121,28.7049925 C25.015161,28.7049925 26.4148756,27.4286633 26.6679244,23.2458294 L26.6825939,22.9999994 L28.5517324,22.9999994 L28.5517324,31.0391355 C28.5517324,31.0391355 17.5960625,30.9658832 14.2758662,30.9658832 C10.9556699,30.9658832 0,31.0391355 0,31.0391355" id="path28" fill="#D1DDE5" fill-rule="nonzero"></path>
                </g>
                <g id="g30" stroke-width="1" fill="none" fill-rule="evenodd" transform="translate(0.127747, 3.679919)">
                  <path d="M9.77966515,16.3819159 C9.77966515,16.3819159 9.77844269,27.5733866 9.77722024,27.6391896 C9.76988549,28.0861531 9.75766091,28.6957617 10.1243983,28.8695809 C10.3786696,28.9825634 12.8309207,28.8931706 12.9641686,28.8931706 C16.8295813,28.8931706 19.0483428,26.595033 19.0483428,22.5909846 C19.0483428,19.6720643 18.2843065,17.9984341 16.5716426,17.1578943 C14.9751123,16.3757081 9.77966515,16.3819159 9.77966515,16.3819159 L9.77966515,16.3819159 Z M30.4000891,2.0232118 C28.2106666,2.37209168 27.5529841,2.62412946 26.1153733,4.3139 L17.1046344,14.8200266 C21.8502169,15.4482587 24.7755592,18.6341156 24.7755592,23.235357 C24.7755592,26.2312544 23.6350058,28.3915782 21.3917951,29.6579749 C19.684021,30.6214297 17.3124522,31.0894999 14.1352835,31.0894999 C13.1854335,31.0659101 10.8982144,30.9864499 8.37872812,30.9864499 C5.76633507,30.9864499 0.338620906,31.0932246 0.338620906,31.0932246 L0.338620906,29.1675566 L0.715138014,29.1675566 C2.15397125,29.1774891 3.77250583,29.1700397 4.2028111,27.7832112 C4.59644262,26.5826174 4.59644262,23.1968685 4.59644262,22.0844259 L4.59644262,9.44777302 C4.59644262,8.05225348 4.59644262,5.93290131 4.41429636,4.48399446 C4.3605082,4.05565439 4.29082809,3.68318477 4.20158864,3.40879881 C3.76150371,2.02569493 2.00727627,2.02569493 0.596559574,2.02569493 L0.338620906,2.02569493 L0.338620906,0.100026963 C0.338620906,0.100026963 4.56343625,0.289986472 7.38731456,0.289986472 C9.81511644,0.289986472 14.0374869,0.104993225 14.0374869,0.100026963 L14.0374869,2.02569493 L13.6621922,2.02569493 C12.2478081,2.0194871 10.6427206,2.0232118 10.1745191,3.41128194 C10.0840572,3.6856679 10.0155996,4.05937909 9.96181142,4.48399446 C9.77966515,5.92172722 9.77966515,7.98396739 9.77966515,9.11006722 L9.77966515,14.2762209 C11.4654349,14.2613222 11.6121299,14.0812952 12.4788527,13.0172736 C12.6402172,12.8211063 12.8235859,12.5976245 13.0350712,12.3493114 L20.5556337,2.87120098 L22.7670605,0.100026963 C22.7670605,0.100026963 25.191195,0.204318458 26.3696446,0.204318458 C28.0823085,0.204318458 30.6189091,0.0963022668 30.6189091,0.0963022668 L30.6189091,1.98844797 L30.4000891,2.0232118 Z" id="path32" fill="#D1DDE5" fill-rule="nonzero"></path>
                </g>
                <g id="g34" stroke-width="1" fill="none" fill-rule="evenodd" transform="translate(97.671350, 21.534456)">
                  <path d="M3.66737443,7.44939253 L6.34455777,7.44939253 C7.70026385,7.44939253 8.41540186,8.08383246 8.41540186,9.22607264 C8.41540186,10.4043182 7.66481256,10.9841293 6.38000905,10.9841293 L3.66737443,10.9841293 L3.66737443,7.44939253 Z M5.77366981,5.31141687 L3.66737443,5.31141687 L3.66737443,0.30914979 L0.991413555,0.30914979 L0.991413555,13.2686097 L6.59516169,13.2686097 C8.0755585,13.2686097 9.18188312,12.8328202 9.93247242,12.0543587 C10.6451655,11.310661 11.0742483,10.4043182 11.0742483,9.24469613 C11.0742483,7.43076904 10.1451801,6.16313075 8.54009259,5.6193251 L11.7343757,0.30914979 L8.7356859,0.30914979 L5.77366981,5.31141687 Z" id="path36" fill="#D1DDE5" fill-rule="nonzero"></path>
                </g>
                <g id="g38" stroke-width="1" fill="none" fill-rule="evenodd" transform="translate(109.119915, 21.516825)">
                  <path d="M7.33474886,4.96626168 C7.33474886,6.7789472 6.49614258,8.01182166 5.01452331,8.01182166 C3.51578962,8.01182166 2.69429775,6.7789472 2.69429775,4.96626168 C2.69429775,3.15357617 3.51578962,1.93932519 5.01452331,1.93932519 C6.49614258,1.93932519 7.33474886,3.15357617 7.33474886,4.96626168 M0.232267047,4.96626168 C0.232267047,7.73867727 2.17719795,9.87789449 5.01452331,9.87789449 C7.85184866,9.87789449 9.79800202,7.73867727 9.79800202,4.96626168 C9.79800202,2.1938461 7.85184866,0.0533873131 5.01452331,0.0533873131 C2.17719795,0.0533873131 0.232267047,2.1938461 0.232267047,4.96626168" id="path40" fill="#D1DDE5" fill-rule="nonzero"></path>
                </g>
                <g id="g42" stroke-width="1" fill="none" fill-rule="evenodd" transform="translate(119.595525, 21.516825)">
                  <path d="M0,4.96626168 C0,7.73867727 1.78478889,9.87789449 4.56832608,9.87789449 C6.9423398,9.87789449 8.40439974,8.48237496 8.72712869,6.47103897 L6.35311497,6.47103897 C6.1917505,7.28674746 5.56829685,7.90256391 4.67467994,7.90256391 C3.21262,7.90256391 2.4620307,6.76032372 2.4620307,4.96626168 C2.4620307,3.20696348 3.15883184,2.02995946 4.64045111,2.02995946 C5.62086255,2.02995946 6.31766369,2.55514164 6.47780571,3.60674755 L8.81514568,3.60674755 C8.65622612,1.63141696 7.1379331,0.0533873131 4.69301682,0.0533873131 C1.80312576,0.0533873131 0,2.1938461 0,4.96626168" id="path44" fill="#D1DDE5" fill-rule="nonzero"></path>
                </g>
                <g id="g46" stroke-width="1" fill="none" fill-rule="evenodd" transform="translate(129.446215, 21.235487)">
                  <path d="M2.44491629,8.69095795 L2.49870445,8.69095795 C3.15760939,9.67055306 3.90819869,10.1597298 5.15755091,10.1597298 C7.04991612,10.1597298 8.31638276,8.70958143 8.31638276,6.67962197 L8.31638276,0.607125491 L5.88858088,0.607125491 L5.88858088,6.3158433 C5.88858088,7.3140619 5.31891539,8.02051262 4.30060775,8.02051262 C3.22973442,8.02051262 2.44491629,7.15017526 2.44491629,5.8812954 L2.44491629,0.607125491 L0.0171144151,0.607125491 L0.0171144151,13.5665854 L2.44491629,13.5665854 L2.44491629,8.69095795 Z" id="path48" fill="#D1DDE5" fill-rule="nonzero"></path>
                </g>
                <g id="g50" stroke-width="1" fill="none" fill-rule="evenodd" transform="translate(138.796797, 21.290116)">
                  <path d="M2.44491629,6.20782711 L6.51447945,6.20782711 C6.44235442,7.38607269 5.67587316,8.20178117 4.56832609,8.20178117 C3.28352258,8.20178117 2.65884646,7.42207809 2.44491629,6.20782711 M0.0183368733,5.21085007 C0.0183368733,7.96588374 1.85569146,10.105101 4.5328748,10.105101 C7.47777647,10.105101 9.04741273,7.82062059 9.04741273,4.50315778 L2.409465,4.50315778 C2.58794389,3.07163285 3.37276202,2.18391358 4.74680497,2.18391358 C5.69298758,2.18391358 6.24553866,2.61846147 6.51447945,3.32615376 L8.90560758,3.32615376 C8.56576422,1.67611332 7.12081869,0.280593785 4.76514185,0.280593785 C1.73100073,0.280593785 0.0183368733,2.43843449 0.0183368733,5.21085007" id="path52" fill="#D1DDE5" fill-rule="nonzero"></path>
                </g>
                <g id="g54" stroke-width="1" fill="none" fill-rule="evenodd" transform="translate(148.397372, 21.126974)">
                  <path d="M0,3.72469626 L2.24810053,3.72469626 C2.409465,2.65446687 3.15883184,2.18391358 4.24804205,2.18391358 C5.31891538,2.18391358 5.92525462,2.60107956 5.92525462,3.2529014 C5.92525462,4.14062068 4.76514185,4.23249652 3.51578962,4.48577587 C1.87402833,4.81230757 0.267718334,5.26547895 0.267718334,7.29543841 C0.267718334,9.3067744 1.90947962,10.267746 3.99866059,10.267746 C6.40690313,10.267746 7.7454948,9.05349505 7.92397369,7.18742222 L5.72966132,7.18742222 C5.622085,8.18315769 4.99740889,8.54569479 3.96198684,8.54569479 C3.0170267,8.54569479 2.39235059,8.18315769 2.39235059,7.51271236 C2.39235059,6.71562736 3.60502907,6.64361657 4.90816945,6.37047218 C6.44357688,6.04518204 8.13912632,5.60939257 8.13912632,3.43541152 C8.13912632,1.56809713 6.56826761,0.443238855 4.28349334,0.443238855 C1.62464687,0.443238855 0.143027603,1.74812411 0,3.72469626" id="path56" fill="#D1DDE5" fill-rule="nonzero"></path>
                </g>
                <g id="g58" stroke-width="1" fill="none" fill-rule="evenodd" transform="translate(156.910327, 21.208917)">
                  <path d="M0,9.93252337 L1.2676891,9.93252337 L1.2676891,12.8328202 L3.64048035,12.8328202 L3.64048035,9.93252337 L5.21133907,9.93252337 L5.21133907,8.30110641 L3.64048035,8.30110641 L3.64048035,3.37085012 C3.64048035,2.68178131 4.015775,2.44712544 4.55121167,2.44712544 C4.85438129,2.44712544 5.26512723,2.46450736 5.26512723,2.46450736 L5.26512723,0.651821846 C5.26512723,0.651821846 4.71135369,0.615816449 3.74805667,0.615816449 C2.56960702,0.615816449 1.2676891,1.08636974 1.2676891,2.84566795 L1.2676891,8.30110641 L0,8.30110641 L0,9.93252337 Z" id="path60" fill="#D1DDE5" fill-rule="nonzero"></path>
                </g>
                <g id="g62" stroke-width="1" fill="none" fill-rule="evenodd" transform="translate(162.817367, 21.290116)">
                  <path d="M2.44491629,6.20782711 L6.51447945,6.20782711 C6.44235442,7.38607269 5.67587316,8.20178117 4.56832609,8.20178117 C3.28352258,8.20178117 2.65884646,7.42207809 2.44491629,6.20782711 M0.0183368733,5.21085007 C0.0183368733,7.96588374 1.85569146,10.105101 4.5328748,10.105101 C7.47777647,10.105101 9.04741273,7.82062059 9.04741273,4.50315778 L2.409465,4.50315778 C2.58794389,3.07163285 3.37276202,2.18391358 4.74680497,2.18391358 C5.69298758,2.18391358 6.24553866,2.61846147 6.51447945,3.32615376 L8.90560758,3.32615376 C8.56576422,1.67611332 7.12081869,0.280593785 4.76514185,0.280593785 C1.73100073,0.280593785 0.0183368733,2.43843449 0.0183368733,5.21085007" id="path64" fill="#D1DDE5" fill-rule="nonzero"></path>
                </g>
                <g id="g66" stroke-width="1" fill="none" fill-rule="evenodd" transform="translate(172.881742, 20.963956)">
                  <path d="M2.44491629,8.69095795 L2.49870445,8.69095795 C3.05247799,9.74256386 3.67593164,10.2863695 4.74680497,10.2863695 C5.01452331,10.2863695 5.17466532,10.2689876 5.31891538,10.2143587 L5.31891538,8.05651802 L5.26512723,8.05651802 C3.67593164,8.22040465 2.53415573,7.36869077 2.53415573,5.40950054 L2.53415573,0.879028318 L0.106353859,0.879028318 L0.106353859,10.1771118 L2.44491629,10.1771118 L2.44491629,8.69095795 Z" id="path68" fill="#D1DDE5" fill-rule="nonzero"></path>
                </g>
                <polygon id="path70" fill="#D1DDE5" fill-rule="nonzero" points="182.464103 34.8023203 185.052046 34.8023203 185.052046 21.8428605 182.464103 21.8428605"></polygon>
                <g id="g72" stroke-width="1" fill="none" fill-rule="evenodd" transform="translate(186.765688, 21.181603)">
                  <path d="M2.44491629,8.69095795 L2.49870445,8.69095795 C3.12338056,9.68793498 3.96198684,10.2131172 5.21133907,10.2131172 C7.10370428,10.2131172 8.37017091,8.76296874 8.37017091,6.73300928 L8.37017091,0.661754369 L5.94236904,0.661754369 L5.94236904,6.37047218 C5.94236904,7.36744921 5.37270354,8.07389993 4.35439591,8.07389993 C3.28352257,8.07389993 2.49870445,7.20480414 2.49870445,5.93592428 L2.49870445,0.661754369 L0.0709025724,0.661754369 L0.0709025724,9.95983781 L2.44491629,9.95983781 L2.44491629,8.69095795 Z" id="path74" fill="#D1DDE5" fill-rule="nonzero"></path>
                </g>
                <g id="g76" stroke-width="1" fill="none" fill-rule="evenodd" transform="translate(196.063094, 21.126974)">
                  <path d="M0,3.72469626 L2.24810053,3.72469626 C2.409465,2.65446687 3.15883184,2.18391358 4.24804205,2.18391358 C5.31891538,2.18391358 5.92525462,2.60107956 5.92525462,3.2529014 C5.92525462,4.14062068 4.76514185,4.23249652 3.51578962,4.48577587 C1.87402833,4.81230757 0.267718334,5.26547895 0.267718334,7.29543841 C0.267718334,9.3067744 1.90947962,10.267746 3.99743813,10.267746 C6.40690313,10.267746 7.7454948,9.05349505 7.92397369,7.18742222 L5.72966132,7.18742222 C5.622085,8.18315769 4.99740889,8.54569479 3.96198684,8.54569479 C3.0170267,8.54569479 2.39235059,8.18315769 2.39235059,7.51271236 C2.39235059,6.71562736 3.60502907,6.64361657 4.90816945,6.37047218 C6.44357688,6.04518204 8.13790387,5.60939257 8.13790387,3.43541152 C8.13790387,1.56809713 6.56826761,0.443238855 4.28349334,0.443238855 C1.62464687,0.443238855 0.143027603,1.74812411 0,3.72469626" id="path78" fill="#D1DDE5" fill-rule="nonzero"></path>
                </g>
                <g id="g80" stroke-width="1" fill="none" fill-rule="evenodd" transform="translate(204.575559, 21.208917)">
                  <path d="M0,9.93252337 L1.2676891,9.93252337 L1.2676891,12.8328202 L3.64170281,12.8328202 L3.64170281,9.93252337 L5.21133907,9.93252337 L5.21133907,8.30110641 L3.64170281,8.30110641 L3.64170281,3.37085012 C3.64170281,2.68178131 4.015775,2.44712544 4.55121167,2.44712544 C4.85438129,2.44712544 5.26512723,2.46450736 5.26512723,2.46450736 L5.26512723,0.651821846 C5.26512723,0.651821846 4.71135369,0.615816449 3.74805667,0.615816449 C2.56960702,0.615816449 1.2676891,1.08636974 1.2676891,2.84566795 L1.2676891,8.30110641 L0,8.30110641 L0,9.93252337 Z" id="path82" fill="#D1DDE5" fill-rule="nonzero"></path>
                </g>
                <path d="M211.035394,31.1409439 L213.461974,31.1409439 L213.461974,21.8428605 L211.035394,21.8428605 L211.035394,31.1409439 Z M211.035394,34.8023203 L213.461974,34.8023203 L213.461974,32.5910923 L211.035394,32.5910923 L211.035394,34.8023203 Z" id="path84" fill="#D1DDE5" fill-rule="nonzero"></path>
                <g id="g86" stroke-width="1" fill="none" fill-rule="evenodd" transform="translate(214.497274, 21.208917)">
                  <path d="M0,9.93252337 L1.2676891,9.93252337 L1.2676891,12.8328202 L3.64170281,12.8328202 L3.64170281,9.93252337 L5.21133907,9.93252337 L5.21133907,8.30110641 L3.64170281,8.30110641 L3.64170281,3.37085012 C3.64170281,2.68178131 4.015775,2.44712544 4.55121167,2.44712544 C4.85560375,2.44712544 5.26512723,2.46450736 5.26512723,2.46450736 L5.26512723,0.651821846 C5.26512723,0.651821846 4.71135369,0.615816449 3.74805667,0.615816449 C2.57082948,0.615816449 1.2676891,1.08636974 1.2676891,2.84566795 L1.2676891,8.30110641 L0,8.30110641 L0,9.93252337 Z" id="path88" fill="#D1DDE5" fill-rule="nonzero"></path>
                </g>
                <g id="g90" stroke-width="1" fill="none" fill-rule="evenodd" transform="translate(220.627412, 20.601419)">
                  <path d="M6.11229072,1.24156542 L6.11229072,2.32793516 L6.05972502,2.32793516 C5.43504891,1.47622129 4.71991089,0.98704451 3.43632984,0.98704451 C1.40093703,0.98704451 0.259161127,2.31055325 0.259161127,4.34051271 L0.259161127,10.5396489 L2.66984859,10.5396489 L2.66984859,4.75767869 C2.66984859,3.67006738 3.15027464,3.07287442 4.18569669,3.07287442 C5.32747259,3.07287442 6.02427373,3.94197021 6.02427373,5.17360311 L6.02427373,10.5396489 L8.44963069,10.5396489 L8.44963069,1.24156542 L6.11229072,1.24156542 Z" id="path92" fill="#D1DDE5" fill-rule="nonzero"></path>
                </g>
                <g id="g94" stroke-width="1" fill="none" fill-rule="evenodd" transform="translate(230.112220, 21.208917)">
                  <path d="M0,9.93252337 L1.26646664,9.93252337 L1.26646664,12.8328202 L3.64048035,12.8328202 L3.64048035,9.93252337 L5.21133907,9.93252337 L5.21133907,8.30110641 L3.64048035,8.30110641 L3.64048035,3.37085012 C3.64048035,2.68178131 4.015775,2.44712544 4.55121167,2.44712544 C4.85438129,2.44712544 5.26390477,2.46450736 5.26390477,2.46450736 L5.26390477,0.651821846 C5.26390477,0.651821846 4.71135369,0.615816449 3.74683421,0.615816449 C2.56960702,0.615816449 1.26646664,1.08636974 1.26646664,2.84566795 L1.26646664,8.30110641 L0,8.30110641 L0,9.93252337 Z" id="path96" fill="#D1DDE5" fill-rule="nonzero"></path>
                </g>
                <g id="g98" stroke-width="1" fill="none" fill-rule="evenodd" transform="translate(236.019138, 21.290116)">
                  <path d="M2.44491629,6.20782711 L6.51447945,6.20782711 C6.44357688,7.38607269 5.67709562,8.20178117 4.56832609,8.20178117 C3.28474503,8.20178117 2.66006892,7.42207809 2.44491629,6.20782711 M0.0183368733,5.21085007 C0.0183368733,7.96588374 1.85691392,10.105101 4.53409726,10.105101 C7.47777647,10.105101 9.04863518,7.82062059 9.04863518,4.50315778 L2.409465,4.50315778 C2.58794389,3.07163285 3.37398448,2.18391358 4.74802743,2.18391358 C5.69298758,2.18391358 6.24553866,2.61846147 6.51447945,3.32615376 L8.90560758,3.32615376 C8.56698667,1.67611332 7.12081869,0.280593785 4.76514185,0.280593785 C1.73100073,0.280593785 0.0183368733,2.43843449 0.0183368733,5.21085007" id="path100" fill="#D1DDE5" fill-rule="nonzero"></path>
                </g>
                <g id="g102" stroke-width="1" fill="none" fill-rule="evenodd" transform="translate(97.787728, 3.391708)">
                  <path d="M7.33474886,4.96626168 C7.33474886,6.7789472 6.49614258,8.01182166 5.01452331,8.01182166 C3.51456716,8.01182166 2.69429775,6.7789472 2.69429775,4.96626168 C2.69429775,3.15357617 3.51456716,1.93932519 5.01452331,1.93932519 C6.49614258,1.93932519 7.33474886,3.15357617 7.33474886,4.96626168 M0.231044589,4.96626168 C0.231044589,7.73867727 2.17719795,9.87913606 5.01452331,9.87913606 C7.85184866,9.87913606 9.79800202,7.73867727 9.79800202,4.96626168 C9.79800202,2.1938461 7.85184866,0.0546288785 5.01452331,0.0546288785 C2.17719795,0.0546288785 0.231044589,2.1938461 0.231044589,4.96626168" id="path104" fill="#D1DDE5" fill-rule="nonzero"></path>
                </g>
                <g id="g106" stroke-width="1" fill="none" fill-rule="evenodd" transform="translate(107.995375, 3.083676)">
                  <path d="M0,9.93252337 L1.24935222,9.93252337 L1.24935222,10.7668553 C1.24935222,13.0327122 2.98035296,13.8297972 5.31769293,13.5765179 L5.31769293,11.6731981 C4.17591702,11.727827 3.67593164,11.5825638 3.67593164,10.6215922 L3.67593164,9.93252337 L5.31769293,9.93252337 L5.31769293,8.22909561 L3.67593164,8.22909561 L3.67593164,0.63443993 L1.24935222,0.63443993 L1.24935222,8.22909561 L0,8.22909561 L0,9.93252337 Z" id="path108" fill="#D1DDE5" fill-rule="nonzero"></path>
                </g>
                <g id="g110" stroke-width="1" fill="none" fill-rule="evenodd" transform="translate(116.953060, 3.020605)">
                  <polygon id="path112" fill="#D1DDE5" fill-rule="nonzero" points="0 13.6572196 10.2625361 13.6572196 10.2625361 11.4459916 6.42401755 11.4459916 6.42401755 0.697759767 3.83729611 0.697759767 3.83729611 11.4459916 0 11.4459916"></polygon>
                </g>
                <g id="g114" stroke-width="1" fill="none" fill-rule="evenodd" transform="translate(125.805124, 3.164874)">
                  <path d="M2.44491629,6.20782711 L6.51447945,6.20782711 C6.44235442,7.38607269 5.67587316,8.20178117 4.56832609,8.20178117 C3.28352258,8.20178117 2.65884646,7.42331965 2.44491629,6.20782711 M0.0183368733,5.21085007 C0.0183368733,7.96588374 1.85569146,10.105101 4.5328748,10.105101 C7.47777647,10.105101 9.04863518,7.82186215 9.04863518,4.50439935 L2.409465,4.50439935 C2.58794389,3.07287442 3.37276202,2.18391358 4.74680497,2.18391358 C5.69298758,2.18391358 6.24676112,2.61970304 6.51447945,3.32615376 L8.90560758,3.32615376 C8.56698667,1.67735488 7.12081869,0.281835351 4.76514185,0.281835351 C1.73100073,0.281835351 0.0183368733,2.43843449 0.0183368733,5.21085007" id="path116" fill="#D1DDE5" fill-rule="nonzero"></path>
                </g>
                <g id="g118" stroke-width="1" fill="none" fill-rule="evenodd" transform="translate(135.531123, 3.391708)">
                  <path d="M0,4.96626168 C0,7.73867727 1.78478889,9.87913606 4.56832608,9.87913606 C6.9423398,9.87913606 8.4056222,8.48361652 8.72712869,6.47103897 L6.35311497,6.47103897 C6.19297296,7.28674746 5.56829685,7.90256391 4.6759024,7.90256391 C3.21262,7.90256391 2.46325316,6.76156528 2.46325316,4.96626168 C2.46325316,3.20820505 3.15883184,2.02995946 4.64045111,2.02995946 C5.622085,2.02995946 6.31766369,2.55514164 6.47780571,3.60674755 L8.81636814,3.60674755 C8.65622612,1.63141696 7.13915556,0.0546288785 4.69301682,0.0546288785 C1.80312576,0.0546288785 0,2.1938461 0,4.96626168" id="path120" fill="#D1DDE5" fill-rule="nonzero"></path>
                </g>
                <g id="g122" stroke-width="1" fill="none" fill-rule="evenodd" transform="translate(145.381813, 3.110990)">
                  <path d="M2.44491629,8.69095795 L2.49870445,8.69095795 C3.15883185,9.67055306 3.90819869,10.1597298 5.15755091,10.1597298 C7.04991612,10.1597298 8.31638276,8.70958143 8.31638276,6.6783804 L8.31638276,0.607125491 L5.88980334,0.607125491 L5.88980334,6.3158433 C5.88980334,7.3140619 5.31891539,8.01927105 4.30060775,8.01927105 C3.23095688,8.01927105 2.44491629,7.15017526 2.44491629,5.8812954 L2.44491629,0.607125491 L0.0183368733,0.607125491 L0.0183368733,13.5665854 L2.44491629,13.5665854 L2.44491629,8.69095795 Z" id="path124" fill="#D1DDE5" fill-rule="nonzero"></path>
                </g>
                <g id="g126" stroke-width="1" fill="none" fill-rule="evenodd" transform="translate(155.125049, 3.056362)">
                  <path d="M2.44491629,8.69095795 L2.49870445,8.69095795 C3.12338056,9.68793498 3.96198684,10.2143587 5.21133907,10.2143587 C7.10370428,10.2143587 8.37017091,8.76421031 8.37017091,6.73300928 L8.37017091,0.661754369 L5.9435915,0.661754369 L5.9435915,6.37047218 C5.9435915,7.36869077 5.37270354,8.07389993 4.35439591,8.07389993 C3.28474503,8.07389993 2.49870445,7.20480414 2.49870445,5.93592428 L2.49870445,0.661754369 L0.0721250305,0.661754369 L0.0721250305,9.95983781 L2.44491629,9.95983781 L2.44491629,8.69095795 Z" id="path128" fill="#D1DDE5" fill-rule="nonzero"></path>
                </g>
                <g id="g130" stroke-width="1" fill="none" fill-rule="evenodd" transform="translate(164.316222, 3.391708)">
                  <path d="M7.33474886,4.96626168 C7.33474886,6.7789472 6.49614258,8.01182166 5.01452331,8.01182166 C3.51456716,8.01182166 2.69429775,6.7789472 2.69429775,4.96626168 C2.69429775,3.15357617 3.51456716,1.93932519 5.01452331,1.93932519 C6.49614258,1.93932519 7.33474886,3.15357617 7.33474886,4.96626168 M0.231044589,4.96626168 C0.231044589,7.73867727 2.17719795,9.87913606 5.01452331,9.87913606 C7.85184866,9.87913606 9.79800202,7.73867727 9.79800202,4.96626168 C9.79800202,2.1938461 7.85184866,0.0546288785 5.01452331,0.0546288785 C2.17719795,0.0546288785 0.231044589,2.1938461 0.231044589,4.96626168" id="path132" fill="#D1DDE5" fill-rule="nonzero"></path>
                </g>
                <polygon id="path134" fill="#D1DDE5" fill-rule="nonzero" points="175.272381 16.6779483 177.700183 16.6779483 177.700183 3.71848844 175.272381 3.71848844"></polygon>
                <g id="g136" stroke-width="1" fill="none" fill-rule="evenodd" transform="translate(178.628151, 3.391708)">
                  <path d="M7.33474886,4.96626168 C7.33474886,6.7789472 6.49614258,8.01182166 5.01452331,8.01182166 C3.51456716,8.01182166 2.69429775,6.7789472 2.69429775,4.96626168 C2.69429775,3.15357617 3.51456716,1.93932519 5.01452331,1.93932519 C6.49614258,1.93932519 7.33474886,3.15357617 7.33474886,4.96626168 M0.231044589,4.96626168 C0.231044589,7.73867727 2.17719795,9.87913606 5.01452331,9.87913606 C7.85184866,9.87913606 9.79800202,7.73867727 9.79800202,4.96626168 C9.79800202,2.1938461 7.85184866,0.0546288785 5.01452331,0.0546288785 C2.17719795,0.0546288785 0.231044589,2.1938461 0.231044589,4.96626168" id="path138" fill="#D1DDE5" fill-rule="nonzero"></path>
                </g>
                <g id="g140" stroke-width="1" fill="none" fill-rule="evenodd" transform="translate(188.371998, 0.084054)">
                  <path d="M7.33474886,8.69095795 C7.33474886,10.0504721 6.62083331,11.2100942 5.15755091,11.2100942 C3.9253131,11.2100942 3.10504369,10.2317406 3.10504369,8.67357603 C3.10504369,7.09554638 3.9253131,6.17182171 5.17466532,6.17182171 C6.71007275,6.17182171 7.33474886,7.31282033 7.33474886,8.69095795 M0.927845731,3.36215916 L3.33608828,3.36215916 C3.53290404,2.78234811 4.05000383,2.32793516 5.17466532,2.32793516 C6.54870828,2.32793516 7.20883568,2.99962206 7.20883568,4.26850192 L7.20883568,5.28286087 L7.15626998,5.28286087 C6.62083331,4.66704442 5.92525462,4.19524956 4.76391939,4.19524956 C2.72974904,4.19524956 0.73102997,5.82666652 0.73102997,8.63757063 C0.73102997,11.4099862 2.37279126,13.1866663 4.69301682,13.1866663 C5.83479272,13.1866663 6.67339901,12.733495 7.22717255,11.9537919 L7.26262383,11.9537919 L7.26262383,12.9321454 L9.60118626,12.9321454 L9.60118626,4.34175428 C9.60118626,3.03562745 9.19044033,2.14666661 8.51197606,1.51346825 C7.74427234,0.788394042 6.56704515,0.461862337 5.21011661,0.461862337 C2.71263462,0.461862337 1.17722719,1.54947365 0.927845731,3.36215916" id="path142" fill="#D1DDE5" fill-rule="nonzero"></path>
                </g>
                <g id="g144" stroke-width="1" fill="none" fill-rule="evenodd" transform="translate(198.516934, 0.129495)">
                  <path d="M1.22245814,2.48313084 L2.0794013,2.48313084 C3.04269832,2.48313084 3.43510738,2.9909311 3.43510738,3.75076914 C3.43510738,4.25981096 3.2566285,4.85824549 2.7395287,6.27114694 L0.276275541,12.8862075 L2.82876815,12.8862075 L4.18447423,8.69964891 C4.47052943,7.84793503 4.77369905,6.66968944 4.77369905,6.66968944 L4.80915034,6.66968944 C4.80915034,6.66968944 5.05975426,7.84793503 5.34458701,8.69964891 L6.62939052,12.8862075 L9.0743068,12.8862075 L5.88002367,3.3534682 C5.18444499,1.28626178 4.50598072,0.543805654 2.65028926,0.543805654 L1.22245814,0.543805654 L1.22245814,2.48313084 Z" id="path146" fill="#D1DDE5" fill-rule="nonzero"></path>
                </g>
              </g>
            </g>
          </g>
        </g>
      </g>
    </g>
  </g>
</svg>
