<svg width="50" height="50" xmlns="http://www.w3.org/2000/svg">

 <g>
  <title>Layer 1</title>
  <path stroke="null" fill="#0030b5" id="svg_1" d="m43.89803,0.24649l-37.7398,0c-3.25152,0 -5.89684,2.64064 -5.89684,5.88641l0,37.673c0,3.24576 2.64532,5.88641 5.89684,5.88641l37.7398,0c3.25152,0 5.89684,-2.64064 5.89684,-5.88641l0,-37.673c0,-3.24576 -2.64532,-5.88641 -5.89684,-5.88641zm-4.7104,21.57133c-0.26772,0.02472 -0.53897,0.0412 -0.81376,0.0412c-3.09348,0 -5.81193,-1.58815 -7.39346,-3.98863c0,6.29728 0,13.46221 0,13.5823c0,5.54382 -4.50283,10.03868 -10.05648,10.03868s-10.05648,-4.49486 -10.05648,-10.03868s4.50283,-10.03868 10.05648,-10.03868c0.20993,0 0.41514,0.01884 0.62153,0.03179l0,4.94694c-0.20639,-0.02472 -0.40924,-0.0624 -0.62153,-0.0624c-2.8352,0 -5.13261,2.29334 -5.13261,5.12353s2.29741,5.12353 5.13261,5.12353s5.339,-2.22977 5.339,-5.05996c0,-0.11184 0.04953,-23.06765 0.04953,-23.06765l4.73635,0c0.4458,4.22762 3.86479,7.56403 8.13882,7.87013l0,5.4979z"/>
 </g>
</svg>