<?xml version="1.0" encoding="UTF-8"?>
<svg width="24px" height="20px" viewBox="0 0 24 20" version="1.1" xmlns="http://www.w3.org/2000/svg" xmlns:xlink="http://www.w3.org/1999/xlink">
    <!-- Generator: sketchtool 53.2 (72643) - https://sketchapp.com -->
    <title>A5DE7FA0-1C57-4AF8-9CDB-27F41B3C8B36</title>
    <desc>Created with sketchtool.</desc>
    <g id="Desktop" stroke="none" stroke-width="1" fill="none" fill-rule="evenodd">
        <g id="Rankings/Home" transform="translate(-261.000000, -2820.000000)" fill="#0030B5">
            <g id="Style/Footer" transform="translate(0.000000, 2633.000000)">
                <g id="Group-13" transform="translate(227.000000, 184.000000)">
                    <path d="M57.7623377,5.27941176 C56.874026,5.64705882 55.9857143,5.94117647 54.9493506,6.01470588 C55.9857143,5.42647059 56.725974,4.47058824 57.0961039,3.36764706 C56.1337662,3.95588235 55.0974026,4.32352941 53.987013,4.54411765 C53.0987013,3.58823529 51.8402597,3 50.5077922,3 C47.8428571,3 45.6220779,5.13235294 45.6220779,7.85294118 C45.6220779,8.22058824 45.6961039,8.58823529 45.7701299,8.95588235 C41.6987013,8.73529412 38.1454545,6.82352941 35.7025974,3.88235294 C35.2584416,4.61764706 35.0363636,5.42647059 35.0363636,6.30882353 C35.0363636,8 35.9246753,9.47058824 37.1831169,10.3529412 C36.3688312,10.3529412 35.6285714,10.1323529 34.9623377,9.76470588 L34.9623377,9.83823529 C34.9623377,12.1911765 36.6649351,14.1029412 38.8857143,14.5441176 C38.4415584,14.6183824 38.0714286,14.6911765 37.6272727,14.6911765 C37.3311688,14.6911765 37.0350649,14.6911765 36.738961,14.6183824 C37.3311688,16.5294118 39.1818182,17.9272059 41.2545455,18 C39.625974,19.3235294 37.4792208,20.0588235 35.1844156,20.0588235 C34.8142857,20.0588235 34.3701299,20.0588235 34,19.9852941 C36.2207792,21.3088235 38.8116883,22.1176471 41.5506494,22.1176471 C50.5077922,22.1176471 55.3935065,14.7647059 55.3935065,8.36764706 L55.3935065,7.77941176 C56.2818182,7.04411765 57.0961039,6.23529412 57.7623377,5.27941176" id="Fill-1"></path>
                </g>
            </g>
        </g>
    </g>
</svg>