<?xml version="1.0" encoding="UTF-8"?>
<svg xmlns="http://www.w3.org/2000/svg" xmlns:xlink="http://www.w3.org/1999/xlink" width="192px" height="46px" viewBox="0 0 192 46" version="1.1">
  <!-- Generator: sketchtool 53.2 (72643) - https://sketchapp.com -->
  <title>48C2BAA2-CDC5-421C-A16D-C97E95905D3B</title>
  <desc>Created with sketchtool.</desc>
  <g id="Desktop" stroke="none" stroke-width="1" fill="none" fill-rule="evenodd">
    <g id="Case-Studies" transform="translate(-635.000000, -1638.000000)">
      <g id="Case-studies" transform="translate(175.000000, 1525.000000)">
        <g id="University-Quotes" transform="translate(0.000000, 105.000000)">
          <g id="UniversityMiami" transform="translate(460.000000, 8.000000)">
            <path d="M40.7036387,7.51020408 L40.7473389,30.1471941 C40.7473389,31.5967129 40.7473389,36.0091937 29.3092118,36.0272486 L28.235043,36.0294445 L27.1608742,36.0272486 C15.7219936,36.0091937 15.7219936,31.5967129 15.7219936,30.1471941 L15.7659449,7.51020408 L0,7.51020408 L0.0138132532,33.5437185 C0.0138132532,40.7456874 20.7949737,41.3061224 27.1658972,41.3061224 L29.3059468,41.3061224 C35.6751123,41.3061224 56.4565238,40.7456874 56.4565238,33.5437185 L56.4705882,7.51020408 L40.7036387,7.51020408" id="Fill-1" fill="#D1DDE5"></path>
            <path d="M64.9411765,0 L64.9411765,46" id="Fill-4" fill="#D1DDE5"></path>
            <path d="M64.9411765,0 L64.9411765,46" id="Stroke-5" stroke="#D1DDE5" stroke-width="0.790629801"></path>
            <path d="M79.3444467,8.44897959 L79.3444467,9.28479536 L78.3923695,9.28479536 C77.6597481,9.28479536 77.4217288,9.4626285 77.4217288,10.1383944 L77.4217288,17.3235943 C77.4217288,19.5823222 78.575207,20.6137545 81.0840728,20.6137545 C82.7318988,20.6137545 83.8304494,20.0446884 84.3433606,18.9599062 C84.5813799,18.4617264 84.6179983,17.643694 84.6179983,16.4875316 L84.6179983,10.8855406 C84.6179983,9.80051147 84.379979,9.28479536 83.2994833,9.28479536 L82.4938795,9.28479536 L82.4938795,8.44897959 L87.5294118,8.44897959 L87.5294118,9.28479536 L86.8517179,9.28479536 C85.8080948,9.28479536 85.515148,9.74716153 85.515148,10.8855406 L85.515148,16.5586648 C85.515148,20.0446884 84.1966329,21.5918367 80.4429973,21.5918367 C77.128782,21.5918367 75.4440834,20.1513883 75.4440834,17.305811 L75.4440834,10.1383944 C75.4440834,9.4626285 75.2426824,9.28479536 74.4739513,9.28479536 L73.4117647,9.28479536 L73.4117647,8.44897959 L79.3444467,8.44897959" id="Fill-7" fill="#D1DDE5"></path>
            <path d="M88.4705882,20.5085204 C90.0803734,20.3842054 90.3428384,19.8159083 90.3428384,18.2350853 L90.3428384,9.85196307 C90.0803734,9.37246238 89.6079364,9.26590668 88.7678055,9.26590668 L88.4705882,9.26590668 L88.4705882,8.44897959 L91.8826329,8.44897959 L98.8469464,18.1285296 L98.8469464,11.4860639 C98.8469464,9.76316664 98.5147338,9.23038811 96.7647243,9.21262882 L96.7647243,8.44897959 L101.647059,8.44897959 L101.647059,9.21262882 C100.072269,9.28366596 99.7395703,9.85196307 99.7395703,11.4860639 L99.7395703,21.5918367 L99.0396638,21.5918367 L91.2527169,10.8112111 L91.2527169,18.2350853 C91.2527169,19.9047047 91.6201679,20.5085204 93.334939,20.5085204 L93.334939,21.2721696 L88.4705882,21.2721696 L88.4705882,20.5085204" id="Fill-8" fill="#D1DDE5"></path>
            <path d="M102.371041,20.7363426 L103.378527,20.7363426 C104.143015,20.7363426 104.386014,20.5543226 104.386014,19.8623937 L104.386014,10.1781698 C104.386014,9.48649374 104.143015,9.30447372 103.378527,9.30447372 L102.371041,9.30447372 L102.371041,8.44897959 L108.452489,8.44897959 L108.452489,9.30447372 L107.445002,9.30447372 C106.679996,9.30447372 106.456427,9.48649374 106.456427,10.1781698 L106.456427,19.8623937 C106.456427,20.5543226 106.679996,20.7363426 107.445002,20.7363426 L108.452489,20.7363426 L108.452489,21.5918367 L102.371041,21.5918367 L102.371041,20.7363426" id="Fill-9" fill="#D1DDE5"></path>
            <path d="M115.474469,21.5918367 L110.882604,10.0650745 C110.610389,9.37246238 110.483355,9.28366596 109.575971,9.28366596 L109.176471,9.28366596 L109.176471,8.44897959 L114.748562,8.44897959 L114.748562,9.28366596 L114.077098,9.28366596 C113.332792,9.28366596 112.987986,9.3547031 112.987986,9.76316664 C112.987986,9.88748163 113.024281,10.1183523 113.133419,10.3847416 L116.345557,18.4126782 L119.194742,11.2374339 C119.358323,10.8112111 119.430914,10.4560254 119.430914,10.224908 C119.430914,9.56781451 119.013517,9.28366596 118.124029,9.28366596 L117.616147,9.28366596 L117.616147,8.44897959 L122.352941,8.44897959 L122.352941,9.28366596 C122.316646,9.28366596 122.262203,9.28366596 122.225907,9.28366596 C121.173342,9.28366596 120.810389,9.72764807 120.39274,10.7932051 L116.181976,21.5918367 L115.474469,21.5918367" id="Fill-10" fill="#D1DDE5"></path>
            <path d="M121.918552,20.7363426 L122.933663,20.7363426 C123.714789,20.7363426 123.968567,20.5725246 123.968567,19.8623937 L123.968567,10.1781698 C123.968567,9.46829174 123.714789,9.30447372 122.933663,9.30447372 L121.918552,9.30447372 L121.918552,8.44897959 L133.339636,8.44897959 L133.593685,13.0907431 L132.753995,13.0907431 C132.499946,11.4889668 131.992662,10.4329979 131.387499,9.94154381 C130.70398,9.41368573 129.551949,9.26806971 127.755983,9.26806971 C126.467302,9.26806971 126.096667,9.32267572 126.096667,10.1781698 L126.096667,14.3466813 C126.194274,14.3466813 126.272359,14.3466813 126.369966,14.3466813 C128.380667,14.3466813 129.142271,13.728066 129.317963,11.8348049 L130.13759,11.8348049 L130.13759,17.6235473 L129.317963,17.6235473 C129.142271,15.7302863 128.400188,15.1296202 126.369966,15.1296202 C126.29188,15.1296202 126.194274,15.1296202 126.096667,15.1296202 L126.096667,19.8623937 C126.096667,20.7545446 126.526137,20.7909486 127.912154,20.7909486 C129.551949,20.7909486 130.723502,20.6817366 131.504356,20.3176965 C132.40261,19.8987977 132.929416,18.6792635 133.339636,16.6042352 L134.081448,16.6042352 L133.788627,21.5918367 L121.918552,21.5918367 L121.918552,20.7363426" id="Fill-11" fill="#D1DDE5"></path>
            <path d="M138.473136,14.2032344 L139.362554,14.238753 C139.58037,14.2567589 139.780036,14.2567589 139.979701,14.2567589 C142.393835,14.2567589 143.465019,13.5286283 143.465019,11.7169346 C143.465019,9.9230002 142.593752,9.24814739 140.578949,9.24814739 L139.398604,9.24814739 C138.636498,9.24814739 138.473136,9.42574024 138.473136,10.0295559 L138.473136,14.2032344 Z M134.588235,20.4374832 L135.532107,20.4374832 C136.258163,20.4374832 136.494383,20.2776497 136.494383,19.5847909 L136.494383,10.1361116 C136.494383,9.44349952 136.258163,9.28366596 135.532107,9.28366596 L134.588235,9.28366596 L134.588235,8.44897959 L141.849294,8.44897959 C144.045863,8.44897959 145.516378,9.70988879 145.516378,11.5926196 C145.516378,13.4575911 144.172923,14.5053889 141.504669,14.7895375 C142.974932,14.9848896 143.73729,15.6775017 144.064015,17.0804852 L144.554354,19.087531 C144.735616,19.8691861 144.971836,20.2598904 145.371166,20.2598904 C145.861254,20.2598904 146.079071,19.6558281 146.115373,18.3949189 L146.805126,18.3949189 C146.805126,18.5369931 146.823529,18.6790674 146.823529,18.8033824 C146.823529,20.6150761 146.006465,21.5918367 144.62696,21.5918367 C143.192748,21.5918367 142.666358,20.8104282 142.466693,19.087531 L142.266775,17.3116025 C142.085766,15.6064646 141.195844,15.0559267 139.453311,15.0559267 L138.473136,15.0559267 L138.473136,19.5847909 C138.473136,20.2776497 138.690953,20.4374832 139.417008,20.4374832 L140.542646,20.4374832 L140.542646,21.2721696 L134.588235,21.2721696 L134.588235,20.4374832 L134.588235,20.4374832 Z" id="Fill-12" fill="#D1DDE5"></path>
            <path d="M148.476543,21.4876738 L147.853655,21.4876738 L147.764706,16.4528899 L148.494333,16.4528899 C149.028025,19.3173711 150.522611,20.8106146 152.799699,20.8106146 C154.739028,20.8106146 155.806413,19.8557875 155.806413,18.3278231 C155.806413,17.5986824 155.521777,17.0257861 155.023664,16.6785763 C154.401023,16.2443229 153.404797,16.0707179 152.106145,15.7235081 C149.259292,14.9770069 147.889234,14.2825872 147.889234,11.9907611 C147.889234,9.83781898 149.36603,8.44897959 151.678944,8.44897959 C152.977596,8.44897959 154.116634,8.86563141 155.005874,9.66421405 L155.699922,8.6223434 L156.358142,8.6223434 L156.553829,13.1365536 L155.859782,13.1365536 C155.184019,10.5495992 153.778135,9.24756224 151.678944,9.24756224 C150.1132,9.24756224 149.223712,10.0114239 149.223712,11.3484229 C149.223712,13.0150302 150.557943,13.2059956 152.924227,13.779133 C154.205336,14.0916218 155.272721,14.3520292 156.091296,15.0811699 C156.785096,15.7061476 157.176471,16.6438553 157.176471,17.7549268 C157.176471,20.1682764 155.610726,21.5918367 152.764366,21.5918367 C151.376519,21.5918367 150.077867,21.105743 149.223712,20.2897998 L148.476543,21.4876738" id="Fill-13" fill="#D1DDE5"></path>
            <path d="M157.864253,20.7363426 L158.87174,20.7363426 C159.636487,20.7363426 159.878968,20.5543226 159.878968,19.8623937 L159.878968,10.1781698 C159.878968,9.48649374 159.636487,9.30447372 158.87174,9.30447372 L157.864253,9.30447372 L157.864253,8.44897959 L163.945701,8.44897959 L163.945701,9.30447372 L162.938215,9.30447372 C162.173468,9.30447372 161.949639,9.48649374 161.949639,10.1781698 L161.949639,19.8623937 C161.949639,20.5543226 162.173468,20.7363426 162.938215,20.7363426 L163.945701,20.7363426 L163.945701,21.5918367 L157.864253,21.5918367 L157.864253,20.7363426" id="Fill-14" fill="#D1DDE5"></path>
            <path d="M173.09992,20.7363426 L174.337908,20.7363426 L174.337908,21.5918367 L167.724474,21.5918367 L167.724474,20.7363426 L168.961925,20.7363426 C169.735331,20.7363426 169.986957,20.5725246 169.986957,19.8623937 L169.986957,10.1053618 C169.986957,9.14065569 169.677595,9.14065569 168.710567,9.14065569 C166.854391,9.14065569 166.13899,10.4511999 165.694012,13.4911871 L164.959276,13.4911871 L165.229968,8.44897959 L176.832144,8.44897959 L177.122172,13.4911871 L176.387435,13.4911871 C175.865117,10.1235638 175.20799,9.14065569 172.984177,9.14065569 C172.268776,9.14065569 172.094491,9.35907972 172.094491,10.1053618 L172.094491,19.8623937 C172.094491,20.5725246 172.326781,20.7363426 173.09992,20.7363426" id="Fill-15" fill="#D1DDE5"></path>
            <path d="M186.882188,20.7363426 L188.051085,20.7363426 L188.051085,21.5918367 L181.660502,21.5918367 L181.660502,20.7363426 L182.848249,20.7363426 C183.583096,20.7363426 183.847243,20.5543226 183.847243,19.8623937 L183.847243,16.1489323 L180.03923,10.3055839 C179.587117,9.59570576 179.379778,9.30447372 178.493615,9.30447372 L178.135747,9.30447372 L178.135747,8.44897959 L183.941488,8.44897959 L183.941488,9.30447372 L183.168419,9.30447372 C182.527816,9.30447372 182.188273,9.41368573 182.188273,9.72311978 C182.188273,9.9051398 182.301629,10.0871598 182.471008,10.3601899 L185.468254,14.9293981 L187.937991,10.7790887 C188.088783,10.5240079 188.163917,10.3055839 188.163917,10.0689578 C188.163917,9.55930175 187.730391,9.30447372 186.863339,9.30447372 L186.335568,9.30447372 L186.335568,8.44897959 L191.312217,8.44897959 L191.312217,9.30447372 L190.954087,9.30447372 C190.086773,9.30447372 189.822888,9.59570576 189.389361,10.3055839 L185.902042,16.0579223 L185.902042,19.8623937 C185.902042,20.5543226 186.146817,20.7363426 186.882188,20.7363426" id="Fill-16" fill="#D1DDE5"></path>
            <path d="M81.4117647,39.4285714 C83.9451047,39.4285714 85.1764706,37.5509421 85.1764706,33.7959184 C85.1764706,30.0070677 83.9978775,28.1632653 81.4117647,28.1632653 C78.8608338,28.1632653 77.6470588,30.0070677 77.6470588,33.7959184 C77.6470588,37.5678556 78.8432429,39.4285714 81.4117647,39.4285714 Z M76.9680982,29.1517102 C78.108077,27.8844175 79.6395911,27.2244898 81.4206689,27.2244898 C83.2373632,27.2244898 84.6620275,27.8496972 85.8376229,29.13435 C86.959546,30.3671635 87.5294118,31.9295791 87.5294118,33.804719 C87.5294118,35.6624987 87.0663959,37.1033931 85.962281,38.3535668 C84.7688773,39.7076603 83.2729798,40.3673469 81.4206689,40.3673469 C79.5686053,40.3673469 78.0902687,39.7250205 76.8790567,38.3535668 C75.7749419,37.1033931 75.2941176,35.6448974 75.2941176,33.804719 C75.2941176,31.9471804 75.8817917,30.3498033 76.9680982,29.1517102 L76.9680982,29.1517102 Z" id="Fill-17" fill="#D1DDE5"></path>
            <path d="M87.5294118,38.634184 L88.4296257,38.634184 C89.122098,38.634184 89.3471514,38.4820673 89.3471514,37.82266 L89.3471514,28.8301665 C89.3471514,28.1709939 89.122098,28.0188772 88.4296257,28.0188772 L87.5294118,28.0188772 L87.5294118,27.2244898 L97.6572995,27.2244898 L97.8823529,31.5346987 L97.1379453,31.5346987 C96.9128918,30.0473351 96.4627848,29.0670272 95.9261188,28.6104423 C95.3199651,28.1202884 94.2985686,27.9850735 92.7056419,27.9850735 C91.5633031,27.9850735 91.2343788,28.0357791 91.2343788,28.8301665 L91.2343788,32.7009271 C91.3209378,32.7009271 91.3899446,32.7009271 91.4767441,32.7009271 C93.2598602,32.7009271 93.9350206,32.1264986 94.0910673,30.3684704 L94.8179227,30.3684704 L94.8179227,35.7437313 L94.0910673,35.7437313 C93.9350206,33.9857031 93.277172,33.4279418 91.4767441,33.4279418 C91.4074969,33.4279418 91.3209378,33.4279418 91.2343788,33.4279418 L91.2343788,37.82266 C91.2343788,38.4820673 91.4421205,38.634184 92.1345927,38.634184 L93.277172,38.634184 L93.277172,39.4285714 L87.5294118,39.4285714 L87.5294118,38.634184" id="Fill-18" fill="#D1DDE5"></path>
            <path d="M106.62424,36.5381187 C106.62424,38.1440301 107.004307,38.6848896 108.778202,38.7017915 L108.778202,39.4285714 L103.529412,39.4285714 L103.529412,38.7017915 C105.3571,38.6848896 105.701221,38.1271282 105.701221,36.5381187 L105.701221,28.8301665 C105.701221,28.1709939 105.465942,28.0188772 104.742005,28.0188772 L103.673948,28.0188772 L103.673948,27.2244898 L108.199053,27.2244898 L111.710647,36.5550205 L115.1134,27.2244898 L119.529412,27.2244898 L119.529412,28.0188772 L118.570196,28.0188772 C117.84626,28.0188772 117.629079,28.1709939 117.629079,28.8301665 L117.629079,37.82266 C117.629079,38.4820673 117.84626,38.634184 118.570196,38.634184 L119.529412,38.634184 L119.529412,39.4285714 L113.665024,39.4285714 L113.665024,38.634184 L114.750929,38.634184 C115.475117,38.634184 115.710396,38.4820673 115.710396,37.82266 L115.710396,28.3062088 L111.656101,39.4285714 L110.950011,39.4285714 L106.62424,28.3062088 L106.62424,36.5381187" id="Fill-19" fill="#D1DDE5"></path>
            <path d="M121.411765,38.634184 L122.347087,38.634184 C123.056999,38.634184 123.282651,38.4651654 123.282651,37.82266 L123.282651,28.8301665 C123.282651,28.1878958 123.056999,28.0188772 122.347087,28.0188772 L121.411765,28.0188772 L121.411765,27.2244898 L127.058824,27.2244898 L127.058824,28.0188772 L126.123501,28.0188772 C125.412867,28.0188772 125.205258,28.1878958 125.205258,28.8301665 L125.205258,37.82266 C125.205258,38.4651654 125.412867,38.634184 126.123501,38.634184 L127.058824,38.634184 L127.058824,39.4285714 L121.411765,39.4285714 L121.411765,38.634184" id="Fill-20" fill="#D1DDE5"></path>
            <path d="M132.853614,30.0408163 L131.011765,34.7346939 L134.776471,34.7346939 L132.853614,30.0408163 Z M133.52062,27.2244898 L137.80028,37.8158925 C138.068793,38.4642892 138.270644,38.6799596 138.958476,38.6799596 C139.059169,38.6799596 139.176643,38.676265 139.294118,38.676265 L139.294118,39.4285714 L134.275813,39.4285714 L134.275813,38.6305447 L134.913531,38.6305447 C135.618611,38.6305447 135.937471,38.5806681 135.937471,38.1982803 C135.937471,38.0652758 135.887124,37.8657692 135.786432,37.6163858 L135.014457,35.5213349 L130.499614,35.5213349 L129.979137,36.8181283 C129.828331,37.200516 129.744421,37.5995294 129.744421,37.8158925 C129.744421,38.3479103 130.163973,38.6305447 130.969512,38.6305447 L131.389064,38.6305447 L131.389064,39.4285714 L127.058824,39.4285714 L127.058824,38.6474012 C127.109403,38.6474012 127.142967,38.6474012 127.19308,38.6474012 C128.183455,38.6474012 128.51933,38.248157 128.921866,37.2337671 L132.866119,27.2244898 L133.52062,27.2244898 L133.52062,27.2244898 Z" id="Fill-21" fill="#D1DDE5"></path>
            <path d="M142.389149,36.5381187 C142.389149,38.1440301 142.769209,38.6848896 144.542825,38.7017915 L144.542825,39.4285714 L139.294118,39.4285714 L139.294118,38.6747954 C141.122028,38.6578936 141.465893,38.1271282 141.465893,36.5381187 L141.465893,28.8301665 C141.465893,28.1709939 141.230617,28.0188772 140.506692,28.0188772 L139.438651,28.0188772 L139.438651,27.2244898 L143.963685,27.2244898 L147.474973,36.5550205 L150.877924,27.2244898 L155.294118,27.2244898 L155.294118,28.0188772 L154.334666,28.0188772 C153.610741,28.0188772 153.393563,28.1709939 153.393563,28.8301665 L153.393563,37.82266 C153.393563,38.4820673 153.610741,38.634184 154.334666,38.634184 L155.294118,38.634184 L155.294118,39.4285714 L149.429822,39.4285714 L149.429822,38.634184 L150.51571,38.634184 C151.239886,38.634184 151.475162,38.4820673 151.475162,37.82266 L151.475162,28.3062088 L147.42093,39.4285714 L146.714852,39.4285714 L142.389149,28.3062088 L142.389149,36.5381187" id="Fill-22" fill="#D1DDE5"></path>
            <path d="M157.176471,38.634184 L158.111793,38.634184 C158.821946,38.634184 159.047116,38.4651654 159.047116,37.82266 L159.047116,28.8301665 C159.047116,28.1878958 158.821946,28.0188772 158.111793,28.0188772 L157.176471,28.0188772 L157.176471,27.2244898 L162.823529,27.2244898 L162.823529,28.0188772 L161.887966,28.0188772 C161.177814,28.0188772 160.970205,28.1878958 160.970205,28.8301665 L160.970205,37.82266 C160.970205,38.4651654 161.177814,38.634184 161.887966,38.634184 L162.823529,38.634184 L162.823529,39.4285714 L157.176471,39.4285714 L157.176471,38.634184" id="Fill-23" fill="#D1DDE5"></path>
          </g>
        </g>
      </g>
    </g>
  </g>
</svg>
